<svg id="svg" version="1.1" xmlns="http://www.w3.org/2000/svg" xmlns:xlink="http://www.w3.org/1999/xlink" width="400" height="157.54050685500624" viewBox="0, 0, 400,157.54050685500624"><g id="svgg"><path id="path0" d="M59.583 0.160 C 57.400 0.520,56.281 1.111,51.583 4.388 C 49.475 5.859,46.925 7.631,45.917 8.327 C 44.908 9.022,43.296 10.146,42.333 10.824 C 41.371 11.503,39.608 12.745,38.417 13.585 C 36.200 15.148,30.078 19.426,20.167 26.336 C 17.096 28.477,13.702 30.852,12.625 31.614 C 11.548 32.376,10.667 32.968,10.667 32.929 C 10.667 32.890,10.498 33.003,10.292 33.179 C 9.571 33.794,6.167 36.145,6.162 36.032 C 6.159 35.968,6.080 36.048,5.987 36.208 C 5.893 36.369,5.714 36.500,5.589 36.500 C 5.464 36.500,5.336 36.556,5.306 36.625 C 5.216 36.827,4.038 37.667,3.844 37.667 C 3.747 37.667,3.667 37.742,3.667 37.833 C 3.667 37.925,3.571 38.000,3.454 38.000 C 3.337 38.000,3.127 38.131,2.987 38.292 C 2.847 38.452,2.455 38.825,2.116 39.121 C 1.776 39.416,1.284 39.996,1.022 40.408 C 0.761 40.821,0.506 41.117,0.457 41.068 C 0.407 41.018,0.376 41.077,0.388 41.197 C 0.400 41.318,0.312 41.942,0.193 42.583 C -0.148 44.429,0.035 122.107,0.380 121.622 C 0.473 121.491,0.500 121.581,0.454 121.870 C 0.414 122.119,0.435 122.290,0.499 122.250 C 0.564 122.210,0.712 122.494,0.827 122.880 C 1.980 126.736,6.322 130.732,10.917 132.166 C 11.283 132.280,11.655 132.440,11.742 132.520 C 11.989 132.749,40.500 132.710,40.500 132.481 C 40.500 132.372,40.673 132.328,40.917 132.374 C 41.146 132.418,41.333 132.407,41.333 132.349 C 41.333 132.292,41.707 132.112,42.163 131.950 C 47.679 129.991,47.341 120.680,41.693 118.988 C 41.312 118.874,41.000 118.736,41.000 118.682 C 41.000 118.628,35.399 118.603,28.553 118.627 L 16.106 118.671 15.636 118.221 C 15.378 117.973,15.167 117.610,15.167 117.413 C 15.167 117.217,15.120 117.009,15.064 116.953 C 15.008 116.896,14.974 109.308,14.989 100.090 C 15.004 90.871,14.957 83.236,14.883 83.123 C 14.810 83.009,14.738 75.642,14.723 66.750 C 14.708 57.858,14.663 50.210,14.622 49.754 C 14.580 49.275,14.641 48.704,14.768 48.400 C 14.888 48.112,14.950 47.838,14.904 47.793 C 14.741 47.630,15.536 47.056,30.667 36.422 C 31.996 35.488,34.358 33.825,35.917 32.726 C 39.976 29.864,45.437 26.018,50.274 22.615 C 52.579 20.993,54.541 19.667,54.635 19.667 C 54.729 19.667,54.831 19.597,54.861 19.513 C 54.931 19.321,58.500 16.816,58.500 16.959 C 58.500 17.017,58.594 16.938,58.708 16.785 C 58.823 16.632,59.083 16.482,59.287 16.452 C 59.491 16.422,59.710 16.346,59.773 16.282 C 59.953 16.102,61.135 16.147,61.253 16.338 C 61.311 16.432,61.447 16.498,61.554 16.485 C 62.007 16.429,62.325 16.516,62.571 16.762 C 62.715 16.906,62.833 16.969,62.833 16.903 C 62.833 16.836,62.965 16.897,63.125 17.037 C 63.285 17.177,64.692 18.178,66.250 19.260 C 71.754 23.082,86.522 33.410,88.750 34.994 C 89.483 35.515,91.205 36.724,92.576 37.679 C 93.948 38.635,96.160 40.181,97.493 41.116 C 98.826 42.050,101.401 43.839,103.215 45.091 C 105.030 46.343,106.624 47.535,106.759 47.741 C 106.973 48.067,106.998 52.459,106.960 82.265 L 106.917 116.417 106.506 117.133 C 106.281 117.527,105.831 118.015,105.506 118.217 L 104.917 118.583 92.746 118.667 L 80.576 118.750 79.465 119.297 C 77.713 120.160,76.323 121.937,75.919 123.833 C 75.850 124.154,75.756 124.481,75.710 124.559 C 75.601 124.742,75.608 126.337,75.718 126.667 C 75.764 126.804,75.928 127.327,76.083 127.828 C 76.756 130.011,79.568 132.589,81.027 132.361 C 81.179 132.337,81.352 132.396,81.412 132.492 C 81.565 132.740,109.271 132.736,109.424 132.489 C 109.484 132.391,109.639 132.351,109.767 132.400 C 109.895 132.449,110.000 132.408,110.000 132.309 C 110.000 132.209,110.150 132.167,110.333 132.215 C 110.517 132.263,110.667 132.242,110.667 132.170 C 110.667 132.036,111.736 131.751,112.125 131.780 C 112.240 131.789,112.333 131.740,112.333 131.671 C 112.333 131.602,112.690 131.412,113.125 131.249 C 116.833 129.859,119.929 126.406,121.044 122.417 L 121.417 121.083 121.465 83.083 C 121.517 42.427,121.532 43.213,120.667 41.364 C 119.737 39.378,119.493 39.133,116.125 36.819 C 114.773 35.890,113.667 35.063,113.667 34.982 C 113.667 34.900,113.610 34.852,113.542 34.875 C 113.388 34.925,112.502 34.311,89.000 17.859 C 69.772 4.398,67.905 3.074,67.167 2.375 C 66.695 1.927,65.060 0.928,64.520 0.756 C 64.323 0.694,64.201 0.580,64.248 0.504 C 64.295 0.427,64.172 0.407,63.974 0.458 C 63.776 0.510,63.657 0.484,63.708 0.401 C 63.759 0.318,63.602 0.244,63.359 0.237 C 63.116 0.230,62.354 0.179,61.667 0.123 C 60.979 0.068,60.042 0.084,59.583 0.160 M65.417 44.853 C 44.831 46.797,24.949 63.054,21.400 80.844 C 21.228 81.709,21.043 82.437,20.989 82.462 C 20.936 82.488,20.925 82.730,20.965 83.002 C 21.005 83.274,20.983 83.628,20.917 83.790 C 20.850 83.951,20.809 84.582,20.825 85.192 C 20.842 85.828,20.779 86.347,20.677 86.410 C 20.443 86.555,20.449 87.167,20.685 87.167 C 20.809 87.167,20.849 87.574,20.807 88.417 C 20.772 89.104,20.809 89.667,20.889 89.667 C 20.969 89.667,21.006 89.967,20.971 90.333 C 20.936 90.700,20.966 91.000,21.037 91.000 C 21.108 91.000,21.167 91.178,21.167 91.395 C 21.167 92.650,22.371 96.340,23.680 99.098 C 24.946 101.764,27.644 105.617,26.580 103.238 C 25.832 101.568,25.149 99.619,25.234 99.398 C 25.278 99.283,25.240 99.163,25.148 99.133 C 25.057 99.102,24.967 98.798,24.949 98.456 C 24.931 98.114,24.852 97.834,24.774 97.834 C 24.695 97.834,24.678 97.646,24.735 97.417 C 24.801 97.154,24.769 97.000,24.649 97.000 C 24.526 97.000,24.494 96.822,24.558 96.500 C 24.621 96.186,24.590 96.000,24.474 96.000 C 24.357 96.000,24.324 95.789,24.384 95.420 C 24.436 95.101,24.419 94.803,24.347 94.758 C 24.164 94.645,24.174 89.000,24.357 89.000 C 24.439 89.000,24.459 88.813,24.402 88.584 C 24.344 88.355,24.354 88.036,24.423 87.875 C 24.493 87.715,24.533 87.416,24.513 87.211 C 24.493 87.006,24.531 86.751,24.597 86.645 C 24.663 86.538,24.744 86.146,24.778 85.775 C 24.811 85.404,24.894 85.058,24.961 85.008 C 25.028 84.958,25.105 84.692,25.132 84.417 C 25.442 81.192,29.676 72.853,33.170 68.583 C 36.518 64.492,43.079 59.452,49.500 56.039 C 52.693 54.342,58.947 51.983,59.594 52.231 C 59.760 52.295,59.809 52.262,59.733 52.139 C 59.652 52.009,59.730 51.978,59.974 52.042 C 60.172 52.093,60.300 52.081,60.258 52.013 C 60.157 51.850,62.265 51.438,62.490 51.577 C 62.587 51.637,62.667 51.598,62.667 51.490 C 62.667 51.371,62.830 51.326,63.083 51.374 C 63.313 51.418,63.500 51.379,63.500 51.288 C 63.500 51.191,63.776 51.160,64.167 51.212 C 64.546 51.263,64.793 51.237,64.740 51.151 C 64.689 51.068,64.881 51.000,65.167 51.000 C 65.467 51.000,65.643 51.070,65.585 51.165 C 65.526 51.259,65.593 51.287,65.741 51.230 C 65.884 51.176,66.000 51.055,66.000 50.962 C 66.000 50.856,66.467 50.822,67.250 50.870 C 67.938 50.912,68.500 50.884,68.500 50.807 C 68.500 50.643,71.892 50.614,72.054 50.777 C 72.115 50.837,72.690 50.870,73.332 50.849 C 73.975 50.828,74.500 50.874,74.500 50.952 C 74.500 51.029,74.810 51.063,75.189 51.026 C 75.591 50.988,75.837 51.026,75.781 51.117 C 75.727 51.204,75.882 51.245,76.134 51.209 C 77.551 51.008,83.840 52.879,86.917 54.417 L 88.917 55.417 88.969 56.148 C 88.998 56.550,88.946 56.954,88.855 57.045 C 88.761 57.139,88.730 57.566,88.784 58.023 C 88.837 58.469,88.813 58.833,88.732 58.833 C 88.650 58.833,88.570 59.182,88.553 59.608 C 88.537 60.034,88.462 60.428,88.387 60.483 C 88.312 60.538,88.226 60.807,88.196 61.081 C 88.166 61.355,88.091 61.618,88.029 61.665 C 87.967 61.712,87.896 61.932,87.872 62.154 C 87.655 64.108,84.185 69.272,81.106 72.223 C 77.836 75.355,70.173 80.235,68.292 80.381 C 68.131 80.394,68.000 80.459,68.000 80.527 C 68.000 80.704,63.848 82.029,63.659 81.912 C 63.571 81.858,63.500 81.902,63.500 82.010 C 63.500 82.123,63.360 82.169,63.167 82.118 C 62.984 82.070,62.789 82.104,62.733 82.194 C 62.678 82.283,62.528 82.316,62.400 82.267 C 62.272 82.217,62.167 82.259,62.167 82.359 C 62.167 82.473,61.978 82.504,61.667 82.442 C 61.357 82.380,61.167 82.410,61.167 82.522 C 61.167 82.632,61.002 82.662,60.750 82.598 C 60.486 82.532,60.333 82.564,60.333 82.685 C 60.333 82.813,60.110 82.847,59.667 82.788 C 59.293 82.738,58.954 82.773,58.895 82.868 C 58.832 82.970,58.468 82.995,57.979 82.930 C 57.461 82.861,57.167 82.884,57.167 82.994 C 57.167 83.215,53.891 83.228,53.755 83.008 C 53.701 82.921,53.288 82.894,52.829 82.948 C 52.301 83.011,52.000 82.983,52.000 82.872 C 52.000 82.766,51.743 82.733,51.333 82.788 C 50.890 82.847,50.667 82.813,50.667 82.685 C 50.667 82.564,50.514 82.532,50.250 82.598 C 50.020 82.656,49.833 82.630,49.833 82.541 C 49.833 82.452,49.646 82.415,49.417 82.459 C 49.163 82.508,49.000 82.462,49.000 82.343 C 49.000 82.235,48.928 82.191,48.840 82.246 C 48.631 82.375,46.500 81.807,46.500 81.622 C 46.500 81.544,46.434 81.521,46.352 81.572 C 46.150 81.696,45.167 81.339,45.167 81.141 C 45.167 81.052,45.092 81.026,45.002 81.082 C 44.911 81.138,44.273 80.902,43.585 80.557 C 41.820 79.673,41.939 78.278,44.001 75.681 C 45.575 73.699,51.402 69.000,52.286 69.000 C 52.404 69.000,52.500 68.939,52.500 68.864 C 52.500 68.728,53.740 67.971,53.918 67.998 C 53.970 68.006,54.127 67.897,54.268 67.756 C 54.409 67.615,54.631 67.500,54.762 67.500 C 54.893 67.500,55.000 67.421,55.000 67.323 C 55.000 67.226,55.069 67.189,55.152 67.241 C 55.236 67.293,55.330 67.270,55.361 67.189 C 55.392 67.109,55.735 66.883,56.125 66.688 C 56.515 66.493,57.152 66.173,57.542 65.978 C 57.931 65.783,58.305 65.539,58.372 65.436 C 58.440 65.334,58.496 65.318,58.497 65.401 C 58.499 65.484,58.637 65.427,58.805 65.275 C 58.973 65.124,59.161 65.049,59.222 65.111 C 59.283 65.172,59.333 65.135,59.333 65.028 C 59.333 64.921,59.427 64.833,59.542 64.833 C 59.656 64.833,60.809 64.314,62.104 63.680 C 63.399 63.046,64.845 62.361,65.318 62.157 C 68.650 60.724,61.342 62.884,56.675 64.712 C 49.162 67.654,42.309 72.026,37.157 77.162 C 35.395 78.919,33.167 81.579,33.167 81.925 C 33.167 82.433,40.219 85.525,43.833 86.602 C 44.979 86.944,45.954 87.267,46.000 87.320 C 46.046 87.373,46.346 87.438,46.667 87.464 C 46.987 87.490,47.272 87.576,47.300 87.655 C 47.327 87.733,47.496 87.760,47.675 87.713 C 47.854 87.666,48.000 87.699,48.000 87.785 C 48.000 87.872,48.225 87.909,48.500 87.869 C 48.775 87.829,49.000 87.869,49.000 87.958 C 49.000 88.047,49.188 88.085,49.417 88.041 C 49.646 87.997,49.833 88.032,49.833 88.118 C 49.833 88.205,50.058 88.243,50.333 88.202 C 50.608 88.162,50.833 88.199,50.833 88.286 C 50.833 88.372,51.058 88.409,51.333 88.369 C 51.608 88.329,51.833 88.368,51.833 88.457 C 51.833 88.550,52.186 88.584,52.667 88.538 C 53.133 88.493,53.500 88.527,53.500 88.614 C 53.500 88.703,53.935 88.740,54.500 88.699 C 55.050 88.659,55.500 88.692,55.500 88.772 C 55.500 88.851,56.625 88.917,58.000 88.917 C 59.375 88.917,60.500 88.851,60.500 88.772 C 60.500 88.692,60.950 88.659,61.500 88.699 C 62.050 88.739,62.500 88.703,62.500 88.619 C 62.500 88.535,62.837 88.493,63.250 88.526 C 63.663 88.559,64.000 88.520,64.000 88.441 C 64.000 88.361,64.225 88.329,64.500 88.369 C 64.775 88.409,65.000 88.372,65.000 88.286 C 65.000 88.200,65.261 88.161,65.581 88.198 C 65.900 88.235,66.182 88.203,66.208 88.127 C 66.233 88.050,66.591 87.972,67.002 87.952 C 67.413 87.933,67.796 87.854,67.852 87.777 C 67.908 87.700,68.208 87.625,68.519 87.610 C 68.829 87.596,69.121 87.541,69.167 87.489 C 69.212 87.437,70.225 87.078,71.417 86.692 C 76.353 85.089,81.228 81.929,85.742 77.407 C 90.853 72.287,94.901 65.017,96.018 58.951 C 96.132 58.336,96.276 57.833,96.339 57.833 C 96.402 57.833,96.418 57.646,96.374 57.417 C 96.330 57.188,96.361 57.000,96.443 57.000 C 96.525 57.000,96.564 56.700,96.529 56.333 C 96.494 55.967,96.537 55.667,96.625 55.667 C 96.716 55.667,96.750 55.309,96.704 54.833 C 96.651 54.279,96.687 54.000,96.812 54.000 C 97.389 54.000,96.991 52.746,96.290 52.358 C 85.734 46.506,75.152 43.934,65.417 44.853 M184.167 89.333 L 184.167 130.500 189.833 130.500 L 195.500 130.500 195.500 112.583 L 195.500 94.667 216.833 94.667 L 238.167 94.667 238.167 112.583 L 238.167 130.500 243.833 130.500 L 249.500 130.500 249.500 89.331 L 249.500 48.162 243.875 48.206 L 238.250 48.250 238.208 65.958 L 238.165 83.667 216.833 83.667 L 195.500 83.667 195.500 65.917 L 195.500 48.167 189.833 48.167 L 184.167 48.167 184.167 89.333 M151.639 81.507 C 135.223 83.422,125.583 98.077,129.828 114.667 C 130.192 116.091,132.161 120.303,132.542 120.472 C 132.610 120.503,132.667 120.607,132.667 120.704 C 132.667 121.057,134.573 123.355,136.058 124.792 C 142.016 130.555,151.273 132.952,160.417 131.101 C 160.684 131.047,161.867 130.732,162.917 130.436 C 163.008 130.411,163.418 130.295,163.828 130.179 C 164.617 129.955,165.689 129.508,166.689 128.984 C 167.023 128.809,167.405 128.667,167.539 128.667 C 167.673 128.667,167.952 128.520,168.158 128.341 C 168.365 128.161,168.789 127.930,169.100 127.828 C 169.412 127.725,169.667 127.580,169.667 127.505 C 169.667 127.431,169.835 127.327,170.042 127.275 C 170.248 127.222,170.674 126.964,170.989 126.700 L 171.562 126.221 171.009 125.235 C 170.704 124.693,170.400 124.212,170.333 124.167 C 170.266 124.121,170.159 123.915,170.095 123.708 C 170.030 123.502,169.903 123.333,169.812 123.333 C 169.721 123.333,169.686 123.270,169.734 123.192 C 169.782 123.114,169.674 122.892,169.494 122.699 C 169.314 122.505,169.167 122.269,169.167 122.174 C 169.167 122.078,169.087 122.000,168.990 122.000 C 168.893 122.000,168.855 121.933,168.906 121.851 C 168.957 121.769,168.881 121.657,168.738 121.602 C 168.596 121.547,168.526 121.427,168.583 121.335 C 168.640 121.242,168.602 121.167,168.500 121.167 C 168.398 121.167,168.353 121.103,168.401 121.025 C 168.449 120.947,168.350 120.735,168.181 120.554 C 168.012 120.373,167.822 120.061,167.759 119.862 C 167.696 119.663,167.574 119.500,167.489 119.500 C 167.403 119.500,167.333 119.388,167.333 119.250 C 167.333 119.112,167.266 119.000,167.185 119.000 C 167.103 119.000,166.989 118.813,166.932 118.583 C 166.793 118.031,166.650 118.053,165.533 118.806 C 157.546 124.189,147.188 123.007,142.751 116.208 C 142.497 115.819,142.237 115.500,142.172 115.500 C 141.941 115.500,142.062 115.012,142.319 114.907 C 142.465 114.847,143.971 114.313,145.667 113.720 C 147.362 113.126,150.025 112.192,151.583 111.644 C 153.142 111.096,155.354 110.319,156.500 109.919 C 157.646 109.518,159.446 108.882,160.500 108.506 C 161.554 108.130,163.092 107.598,163.917 107.324 C 164.742 107.049,165.904 106.645,166.500 106.425 C 168.134 105.820,168.231 105.787,168.493 105.735 C 168.626 105.708,168.889 105.607,169.076 105.510 C 169.525 105.279,171.481 104.667,171.772 104.667 C 171.897 104.667,172.000 104.594,172.000 104.505 C 172.000 104.416,172.105 104.384,172.233 104.433 C 172.361 104.482,172.517 104.441,172.578 104.342 C 172.639 104.243,172.760 104.204,172.845 104.257 C 172.930 104.310,173.000 104.276,173.000 104.182 C 173.000 104.088,173.112 104.054,173.250 104.106 C 173.388 104.159,173.500 104.111,173.500 104.000 C 173.500 103.889,173.605 103.838,173.734 103.887 C 173.862 103.937,174.018 103.926,174.081 103.864 C 174.143 103.801,174.244 103.743,174.306 103.735 C 174.367 103.727,174.774 103.554,175.210 103.352 C 175.647 103.149,176.078 103.029,176.169 103.085 C 176.259 103.141,176.333 103.099,176.333 102.992 C 176.333 102.885,176.439 102.838,176.567 102.887 C 176.696 102.937,176.848 102.930,176.905 102.873 C 176.962 102.816,177.172 102.744,177.372 102.714 C 177.572 102.683,177.787 102.576,177.849 102.474 C 177.912 102.373,178.046 102.342,178.148 102.405 C 178.250 102.468,178.333 102.440,178.333 102.343 C 178.333 102.246,178.390 102.176,178.458 102.186 C 179.184 102.301,179.143 101.923,178.082 98.750 C 177.238 96.227,176.519 94.603,175.430 92.762 C 173.836 90.069,170.461 86.238,169.284 85.786 C 169.128 85.726,169.000 85.600,169.000 85.505 C 169.000 85.411,168.915 85.333,168.810 85.333 C 168.706 85.333,168.537 85.226,168.435 85.095 C 167.852 84.345,163.443 82.490,160.910 81.930 C 158.318 81.357,154.441 81.180,151.639 81.507 M278.394 81.577 C 263.563 83.588,254.203 96.325,256.587 111.250 C 258.563 123.618,268.509 131.547,282.083 131.575 C 296.827 131.606,307.035 122.669,308.202 108.709 C 309.618 91.769,295.824 79.213,278.394 81.577 M340.417 81.585 C 334.915 82.469,329.860 85.688,326.868 90.215 C 325.851 91.754,325.954 91.966,325.586 87.583 C 325.440 85.842,325.282 84.173,325.236 83.875 L 325.152 83.333 320.242 83.333 L 315.333 83.333 315.333 106.917 L 315.333 130.500 320.750 130.500 L 326.167 130.500 326.167 119.268 C 326.167 108.021,326.259 105.632,326.776 103.500 C 327.225 101.649,328.587 98.167,328.862 98.167 C 328.938 98.167,329.000 98.054,329.000 97.917 C 329.000 97.779,329.066 97.667,329.146 97.667 C 329.227 97.667,329.386 97.442,329.500 97.167 C 329.614 96.892,329.773 96.667,329.854 96.667 C 329.934 96.667,330.000 96.594,330.000 96.506 C 330.000 96.225,331.894 94.205,332.740 93.583 C 332.989 93.400,333.284 93.175,333.395 93.083 C 333.754 92.787,334.243 92.493,334.542 92.392 C 334.702 92.339,334.833 92.224,334.833 92.137 C 334.833 92.051,334.908 92.027,335.000 92.083 C 335.092 92.140,335.167 92.107,335.167 92.010 C 335.167 91.913,335.223 91.845,335.292 91.860 C 335.360 91.874,335.529 91.843,335.667 91.789 C 338.866 90.550,341.998 90.668,344.178 92.111 C 344.982 92.643,345.833 93.449,345.833 93.679 C 345.833 93.764,345.908 93.833,346.000 93.833 C 346.092 93.833,346.167 93.946,346.167 94.083 C 346.167 94.221,346.237 94.333,346.322 94.333 C 346.449 94.333,346.685 94.795,346.748 95.167 C 346.755 95.212,346.853 95.414,346.964 95.614 C 347.076 95.815,347.203 96.267,347.248 96.619 C 347.292 96.972,347.404 97.662,347.497 98.153 C 347.604 98.718,347.667 104.820,347.667 114.773 L 347.667 130.500 353.159 130.500 L 358.651 130.500 358.713 117.875 C 358.780 104.299,358.771 104.450,359.686 101.917 C 359.978 101.108,360.608 99.625,360.889 99.083 C 360.984 98.900,361.174 98.525,361.312 98.250 C 361.451 97.975,361.654 97.658,361.765 97.546 C 361.876 97.434,362.137 97.068,362.345 96.732 C 362.552 96.396,363.008 95.813,363.359 95.436 C 363.709 95.059,363.997 94.699,363.998 94.636 C 364.002 94.401,366.631 92.599,367.750 92.065 C 372.543 89.779,377.399 91.023,379.202 95.000 C 380.162 97.118,380.167 97.220,380.167 114.587 L 380.167 130.500 385.672 130.500 L 391.178 130.500 391.120 112.292 C 391.088 102.277,391.022 93.896,390.972 93.667 C 390.923 93.438,390.825 92.912,390.754 92.500 C 388.441 78.965,368.512 77.362,359.282 89.969 C 358.517 91.014,358.511 91.018,358.399 90.552 C 356.878 84.205,348.895 80.224,340.417 81.585 M99.583 90.266 C 92.484 95.088,82.736 99.256,73.167 101.561 C 54.583 106.038,36.000 101.829,29.337 91.634 C 28.936 91.019,28.542 90.557,28.462 90.607 C 28.382 90.656,28.405 90.802,28.512 90.931 C 28.619 91.059,28.668 91.312,28.621 91.491 C 28.574 91.671,28.603 91.840,28.685 91.867 C 28.767 91.895,28.853 92.235,28.876 92.624 C 28.898 93.013,28.966 93.332,29.027 93.332 C 29.123 93.333,29.395 94.455,29.411 94.917 C 29.414 95.008,29.459 95.121,29.510 95.167 C 29.562 95.212,29.814 95.850,30.072 96.583 C 36.972 116.247,65.920 117.781,90.333 99.777 C 94.227 96.906,101.500 89.939,101.500 89.080 C 101.500 88.961,101.553 88.928,99.583 90.266 M157.704 90.510 C 161.392 91.451,164.889 94.457,166.453 98.029 C 166.641 98.459,166.623 98.484,165.949 98.720 C 165.565 98.856,161.462 100.371,156.833 102.088 C 152.204 103.805,148.098 105.281,147.708 105.368 C 147.319 105.456,147.000 105.594,147.000 105.675 C 147.000 105.756,146.887 105.780,146.750 105.727 C 146.608 105.673,146.500 105.723,146.500 105.843 C 146.500 105.960,146.451 106.006,146.390 105.946 C 146.330 105.886,146.180 105.920,146.057 106.022 C 145.934 106.124,145.833 106.152,145.833 106.083 C 145.833 106.015,145.721 106.053,145.583 106.167 C 145.446 106.281,145.333 106.318,145.333 106.250 C 145.333 106.182,145.221 106.219,145.083 106.333 C 144.946 106.447,144.833 106.485,144.833 106.417 C 144.833 106.348,144.733 106.376,144.610 106.478 C 144.487 106.580,144.337 106.614,144.276 106.554 C 144.216 106.494,144.167 106.536,144.167 106.649 C 144.167 106.761,144.105 106.815,144.030 106.768 C 143.954 106.722,143.692 106.788,143.446 106.915 C 143.201 107.043,143.000 107.105,143.000 107.053 C 143.000 107.001,142.906 107.037,142.792 107.132 C 142.677 107.227,142.546 107.307,142.500 107.308 C 142.403 107.312,141.959 107.452,141.542 107.611 C 141.381 107.671,141.212 107.734,141.167 107.750 C 141.121 107.766,140.966 107.831,140.822 107.895 C 140.679 107.960,140.341 108.028,140.072 108.048 L 139.583 108.083 139.597 105.833 C 139.604 104.596,139.699 103.171,139.808 102.667 C 140.253 100.595,140.211 100.758,140.474 100.114 C 140.580 99.856,140.667 99.598,140.667 99.540 C 140.667 99.320,141.975 96.813,142.378 96.259 C 143.837 94.257,145.589 92.736,147.767 91.581 C 150.361 90.204,154.684 89.738,157.704 90.510 M284.874 90.667 C 285.447 90.767,286.292 90.974,286.750 91.126 C 287.208 91.278,287.621 91.413,287.667 91.424 C 288.966 91.755,292.197 94.168,293.333 95.656 C 293.563 95.956,293.828 96.287,293.923 96.392 C 294.018 96.497,294.277 96.883,294.497 97.250 C 294.718 97.617,294.941 97.954,294.991 98.000 C 295.105 98.103,295.704 99.386,295.692 99.500 C 295.687 99.546,295.793 99.751,295.927 99.955 C 297.177 101.863,297.480 108.242,296.475 111.500 C 296.292 112.096,296.117 112.696,296.088 112.833 C 296.002 113.238,294.775 115.556,294.464 115.900 C 294.307 116.075,294.209 116.266,294.246 116.327 C 294.283 116.387,294.130 116.573,293.907 116.741 C 293.683 116.909,293.500 117.140,293.500 117.254 C 293.500 117.368,293.313 117.585,293.083 117.735 C 292.854 117.885,292.667 118.121,292.667 118.259 C 292.667 118.397,292.535 118.557,292.375 118.614 C 292.215 118.670,291.891 118.912,291.657 119.150 C 291.422 119.388,291.085 119.678,290.907 119.794 C 290.729 119.911,290.123 120.305,289.560 120.671 C 287.139 122.244,282.775 123.010,279.667 122.408 C 279.438 122.364,279.090 122.298,278.895 122.261 C 277.837 122.061,275.037 120.850,274.530 120.374 C 274.408 120.259,274.157 120.084,273.974 119.986 C 273.017 119.474,270.919 117.343,270.241 116.196 C 270.069 115.905,269.869 115.667,269.797 115.667 C 269.725 115.667,269.667 115.560,269.667 115.429 C 269.667 115.298,269.535 115.059,269.375 114.899 C 269.215 114.738,269.101 114.564,269.123 114.512 C 269.198 114.332,268.977 113.833,268.822 113.833 C 268.737 113.833,268.679 113.777,268.693 113.708 C 268.718 113.589,268.633 113.320,268.335 112.583 C 267.119 109.575,266.961 105.306,267.937 101.857 C 268.187 100.973,268.525 100.030,268.687 99.762 C 268.850 99.493,268.945 99.212,268.898 99.137 C 268.852 99.062,268.884 99.000,268.970 99.000 C 269.056 99.000,269.223 98.756,269.341 98.458 C 269.458 98.160,269.667 97.785,269.803 97.625 C 269.940 97.465,269.992 97.333,269.920 97.333 C 269.847 97.333,269.990 97.131,270.237 96.884 C 270.484 96.637,270.810 96.225,270.962 95.967 C 271.114 95.710,271.291 95.500,271.355 95.500 C 271.419 95.500,271.703 95.185,271.986 94.800 C 272.269 94.416,272.500 94.164,272.500 94.242 C 272.500 94.319,272.675 94.202,272.888 93.983 C 273.447 93.408,273.978 93.000,274.169 93.000 C 274.259 93.000,274.333 92.925,274.333 92.833 C 274.333 92.742,274.398 92.667,274.477 92.667 C 274.556 92.667,275.175 92.360,275.852 91.985 C 276.529 91.610,277.233 91.271,277.417 91.231 C 277.600 91.192,278.237 91.020,278.833 90.851 C 280.117 90.485,283.281 90.389,284.874 90.667 " stroke="none" fill="#34ac3c" fill-rule="evenodd"></path><path id="path1" d="M58.083 0.286 C 57.900 0.330,57.681 0.431,57.598 0.510 C 57.514 0.590,57.739 0.575,58.098 0.477 C 59.065 0.212,59.053 0.052,58.083 0.286 M64.347 0.563 C 64.586 0.779,65.833 1.315,65.833 1.202 C 65.833 1.126,65.546 0.937,65.194 0.782 C 64.605 0.522,64.181 0.412,64.347 0.563 M54.953 1.695 C 54.520 1.976,54.167 2.276,54.167 2.361 C 54.167 2.479,55.292 1.817,55.819 1.390 C 56.213 1.071,55.557 1.301,54.953 1.695 M66.500 1.617 C 66.500 1.697,66.852 2.060,67.282 2.423 C 68.336 3.313,68.724 3.584,68.647 3.378 C 68.555 3.128,66.500 1.443,66.500 1.617 M69.743 4.249 C 70.015 4.470,70.276 4.613,70.324 4.565 C 70.430 4.459,69.651 3.840,69.417 3.843 C 69.325 3.844,69.472 4.027,69.743 4.249 M49.375 5.526 C 48.631 6.043,48.364 6.539,49.083 6.068 C 49.313 5.918,49.500 5.729,49.500 5.647 C 49.500 5.566,49.608 5.500,49.740 5.500 C 49.872 5.500,50.030 5.420,50.090 5.322 C 50.305 4.974,50.073 5.040,49.375 5.526 M72.667 6.161 C 72.667 6.261,72.798 6.392,72.958 6.451 C 73.119 6.511,73.302 6.637,73.366 6.733 C 73.430 6.829,73.528 6.861,73.584 6.805 C 73.640 6.749,73.457 6.540,73.176 6.340 C 72.896 6.141,72.667 6.060,72.667 6.161 M73.833 6.960 C 73.833 7.038,74.171 7.340,74.583 7.631 C 74.996 7.922,75.333 8.090,75.333 8.005 C 75.333 7.919,74.996 7.617,74.583 7.333 C 74.171 7.050,73.833 6.881,73.833 6.960 M43.375 9.683 C 42.571 10.252,42.477 10.390,43.082 10.109 C 43.310 10.003,43.498 9.860,43.499 9.792 C 43.499 9.723,43.604 9.667,43.732 9.667 C 43.860 9.667,44.008 9.554,44.060 9.417 C 44.181 9.102,44.214 9.089,43.375 9.683 M77.767 9.735 C 77.823 9.881,77.963 10.000,78.078 10.000 C 78.194 10.000,78.467 10.170,78.686 10.379 C 78.904 10.587,79.290 10.862,79.542 10.990 C 79.794 11.118,80.000 11.285,80.000 11.361 C 80.000 11.438,80.091 11.500,80.202 11.500 C 80.480 11.500,80.161 11.220,78.791 10.259 C 78.172 9.825,77.711 9.589,77.767 9.735 M37.419 13.846 C 36.779 14.304,36.179 14.764,36.086 14.868 C 35.887 15.091,38.135 13.558,38.494 13.226 C 38.956 12.798,38.580 13.015,37.419 13.846 M83.207 13.430 C 83.267 13.527,83.788 13.931,84.366 14.328 C 84.944 14.726,85.304 14.939,85.167 14.803 C 84.780 14.420,83.085 13.233,83.207 13.430 M86.909 16.057 C 87.524 16.590,90.833 18.878,90.833 18.771 C 90.833 18.727,90.102 18.185,89.208 17.565 C 88.315 16.946,87.321 16.257,87.000 16.034 L 86.417 15.630 86.909 16.057 M60.125 16.451 C 60.331 16.491,60.669 16.491,60.875 16.451 C 61.081 16.411,60.913 16.379,60.500 16.379 C 60.087 16.379,59.919 16.411,60.125 16.451 M61.750 16.689 C 62.025 16.794,62.813 17.267,63.500 17.740 C 65.149 18.875,74.187 25.218,75.242 25.981 C 75.697 26.310,76.013 26.489,75.946 26.380 C 75.878 26.272,74.869 25.517,73.703 24.703 C 72.537 23.889,70.158 22.213,68.417 20.978 C 63.401 17.421,62.284 16.685,61.750 16.588 L 61.250 16.498 61.750 16.689 M32.583 17.265 L 32.083 17.694 32.625 17.336 C 32.923 17.139,33.167 16.945,33.167 16.905 C 33.167 16.781,33.096 16.824,32.583 17.265 M31.208 18.183 C 30.819 18.459,30.500 18.722,30.500 18.767 C 30.500 18.812,30.837 18.617,31.250 18.333 C 31.662 18.050,32.000 17.783,32.000 17.742 C 32.000 17.627,31.968 17.645,31.208 18.183 M55.917 18.850 C 55.275 19.307,51.962 21.646,48.555 24.048 C 45.148 26.450,42.388 28.444,42.422 28.478 C 42.484 28.540,42.817 28.313,46.917 25.415 C 55.037 19.673,57.167 18.149,57.167 18.079 C 57.167 17.960,57.168 17.959,55.917 18.850 M91.000 18.894 C 91.000 18.940,91.225 19.138,91.500 19.333 C 91.775 19.529,92.000 19.652,92.000 19.606 C 92.000 19.560,91.775 19.362,91.500 19.167 C 91.225 18.971,91.000 18.848,91.000 18.894 M28.750 19.931 L 28.250 20.361 28.792 20.002 C 29.090 19.805,29.333 19.612,29.333 19.572 C 29.333 19.447,29.263 19.491,28.750 19.931 M92.333 19.866 C 92.471 20.005,93.333 20.629,94.250 21.252 C 95.167 21.876,95.804 22.272,95.667 22.134 C 95.529 21.995,94.667 21.371,93.750 20.748 C 92.833 20.124,92.196 19.728,92.333 19.866 M27.583 20.765 L 27.083 21.194 27.625 20.836 C 27.923 20.639,28.167 20.445,28.167 20.405 C 28.167 20.281,28.096 20.324,27.583 20.765 M25.854 21.914 C 25.270 22.314,24.707 22.733,24.604 22.844 C 24.501 22.955,24.998 22.658,25.708 22.184 C 26.419 21.711,27.000 21.288,27.000 21.245 C 27.000 21.129,27.002 21.128,25.854 21.914 M96.000 22.462 C 96.000 22.545,96.169 22.698,96.375 22.803 C 96.581 22.907,97.313 23.400,98.000 23.899 C 99.205 24.773,99.930 25.283,106.053 29.571 C 107.594 30.650,108.889 31.500,108.929 31.460 C 108.970 31.419,108.384 30.965,107.627 30.452 C 106.457 29.658,103.095 27.306,97.292 23.220 C 96.581 22.720,96.000 22.379,96.000 22.462 M20.603 25.582 C 20.155 25.891,19.705 26.235,19.603 26.346 C 19.500 26.456,19.885 26.234,20.458 25.851 C 21.031 25.468,21.500 25.120,21.500 25.077 C 21.500 24.963,21.484 24.972,20.603 25.582 M18.377 27.143 C 17.323 27.905,17.071 28.155,17.750 27.764 C 18.272 27.464,19.478 26.508,19.333 26.510 C 19.287 26.510,18.857 26.795,18.377 27.143 M76.667 26.901 C 76.667 26.946,77.004 27.216,77.417 27.500 C 77.829 27.784,78.167 27.979,78.167 27.933 C 78.167 27.887,77.829 27.617,77.417 27.333 C 77.004 27.050,76.667 26.855,76.667 26.901 M15.500 29.160 C 12.961 30.932,6.071 35.780,4.167 37.133 C 2.365 38.413,1.167 39.449,1.167 39.725 C 1.167 39.811,1.560 39.513,2.042 39.062 C 2.523 38.612,4.342 37.237,6.083 36.008 C 7.825 34.778,10.487 32.897,12.000 31.828 C 13.512 30.759,15.275 29.523,15.917 29.082 C 17.310 28.125,17.239 28.180,17.153 28.111 C 17.115 28.080,16.371 28.552,15.500 29.160 M78.333 28.067 C 78.333 28.113,78.671 28.383,79.083 28.667 C 79.496 28.950,79.833 29.145,79.833 29.099 C 79.833 29.054,79.496 28.784,79.083 28.500 C 78.671 28.216,78.333 28.021,78.333 28.067 M41.754 28.826 C 41.700 28.914,41.020 29.413,40.244 29.935 C 39.467 30.458,38.738 30.998,38.624 31.137 C 38.510 31.276,39.057 30.945,39.839 30.403 C 41.876 28.990,42.276 28.678,42.052 28.672 C 41.942 28.669,41.809 28.739,41.754 28.826 M81.167 30.071 C 81.167 30.117,81.617 30.460,82.167 30.833 C 82.717 31.207,83.167 31.475,83.167 31.429 C 83.167 31.383,82.717 31.040,82.167 30.667 C 81.617 30.293,81.167 30.025,81.167 30.071 M83.333 31.561 C 83.333 31.606,83.558 31.804,83.833 32.000 C 84.108 32.196,84.333 32.319,84.333 32.273 C 84.333 32.227,84.108 32.029,83.833 31.833 C 83.558 31.638,83.333 31.515,83.333 31.561 M109.258 31.811 C 109.631 32.151,112.222 33.891,112.128 33.739 C 111.988 33.512,109.416 31.667,109.240 31.667 C 109.163 31.667,109.171 31.732,109.258 31.811 M35.875 33.017 C 35.485 33.292,35.167 33.555,35.167 33.600 C 35.167 33.646,35.504 33.450,35.917 33.167 C 36.329 32.883,36.667 32.617,36.667 32.575 C 36.667 32.461,36.635 32.478,35.875 33.017 M86.833 34.031 C 87.209 34.402,89.403 35.914,89.282 35.719 C 89.224 35.625,88.594 35.152,87.880 34.666 C 87.167 34.181,86.696 33.895,86.833 34.031 M33.542 34.683 C 33.152 34.959,32.833 35.222,32.833 35.267 C 32.833 35.312,33.171 35.117,33.583 34.833 C 33.996 34.550,34.333 34.283,34.333 34.242 C 34.333 34.127,34.302 34.145,33.542 34.683 M113.000 34.383 C 113.000 34.416,113.356 34.687,113.792 34.985 C 114.391 35.395,114.462 35.420,114.083 35.088 C 113.580 34.647,113.000 34.269,113.000 34.383 M31.875 35.850 C 31.485 36.126,31.167 36.389,31.167 36.434 C 31.167 36.479,31.504 36.284,31.917 36.000 C 32.329 35.716,32.667 35.450,32.667 35.409 C 32.667 35.294,32.635 35.312,31.875 35.850 M115.167 35.901 C 115.167 35.946,115.504 36.216,115.917 36.500 C 116.329 36.784,116.667 36.979,116.667 36.933 C 116.667 36.887,116.329 36.617,115.917 36.333 C 115.504 36.050,115.167 35.855,115.167 35.901 M91.667 37.401 C 91.667 37.446,92.004 37.716,92.417 38.000 C 92.829 38.284,93.167 38.479,93.167 38.433 C 93.167 38.387,92.829 38.117,92.417 37.833 C 92.004 37.550,91.667 37.355,91.667 37.401 M117.333 37.394 C 117.333 37.440,117.558 37.638,117.833 37.833 C 118.108 38.029,118.333 38.152,118.333 38.106 C 118.333 38.060,118.108 37.862,117.833 37.667 C 117.558 37.471,117.333 37.348,117.333 37.394 M28.218 38.385 C 27.650 38.769,27.181 39.146,27.176 39.223 C 27.167 39.354,28.634 38.368,29.161 37.889 C 29.581 37.506,29.287 37.661,28.218 38.385 M119.156 38.917 C 120.139 40.041,120.283 40.174,119.876 39.583 C 119.686 39.308,119.282 38.858,118.978 38.583 C 118.571 38.214,118.617 38.301,119.156 38.917 M93.833 38.901 C 93.833 38.946,94.171 39.216,94.583 39.500 C 94.996 39.784,95.333 39.979,95.333 39.933 C 95.333 39.887,94.996 39.617,94.583 39.333 C 94.171 39.050,93.833 38.855,93.833 38.901 M95.500 40.061 C 95.500 40.106,95.725 40.304,96.000 40.500 C 96.275 40.696,96.500 40.819,96.500 40.773 C 96.500 40.727,96.275 40.529,96.000 40.333 C 95.725 40.138,95.500 40.015,95.500 40.061 M24.378 41.059 C 24.174 41.160,23.968 41.343,23.921 41.465 C 23.872 41.594,24.045 41.539,24.335 41.332 C 24.725 41.055,25.027 40.738,24.792 40.854 C 24.769 40.865,24.583 40.957,24.378 41.059 M97.667 41.588 C 97.667 41.619,97.891 41.804,98.165 41.999 C 98.444 42.198,98.627 42.258,98.579 42.135 C 98.505 41.944,97.667 41.441,97.667 41.588 M99.333 42.739 C 99.333 42.778,99.558 42.970,99.832 43.166 C 100.208 43.433,100.306 43.457,100.231 43.260 C 100.176 43.117,100.027 43.000,99.899 43.000 C 99.771 43.000,99.667 42.925,99.667 42.833 C 99.667 42.742,99.592 42.667,99.500 42.667 C 99.408 42.667,99.333 42.699,99.333 42.739 M100.503 43.439 C 100.501 43.543,100.688 43.751,100.917 43.901 C 101.147 44.052,101.333 44.096,101.333 43.999 C 101.333 43.902,101.202 43.774,101.042 43.715 C 100.881 43.656,100.695 43.527,100.628 43.429 C 100.542 43.304,100.504 43.307,100.503 43.439 M20.472 43.792 C 20.442 43.860,20.194 44.042,19.921 44.195 C 19.648 44.348,19.395 44.565,19.358 44.676 C 19.321 44.788,19.638 44.640,20.062 44.348 C 20.486 44.056,20.833 43.783,20.833 43.742 C 20.833 43.616,20.532 43.658,20.472 43.792 M68.465 44.624 C 69.041 44.656,69.941 44.656,70.465 44.623 C 70.988 44.590,70.517 44.563,69.417 44.564 C 68.317 44.564,67.888 44.591,68.465 44.624 M65.460 44.785 C 65.668 44.824,65.968 44.823,66.127 44.781 C 66.286 44.739,66.117 44.707,65.750 44.709 C 65.383 44.711,65.253 44.745,65.460 44.785 M72.794 44.785 C 73.001 44.824,73.301 44.823,73.460 44.781 C 73.620 44.739,73.450 44.707,73.083 44.709 C 72.717 44.711,72.586 44.745,72.794 44.785 M63.627 44.951 C 63.834 44.991,64.134 44.990,64.294 44.948 C 64.453 44.906,64.283 44.874,63.917 44.875 C 63.550 44.877,63.420 44.911,63.627 44.951 M74.542 44.948 C 74.702 44.990,74.965 44.990,75.125 44.948 C 75.285 44.906,75.154 44.872,74.833 44.872 C 74.512 44.872,74.381 44.906,74.542 44.948 M85.571 47.428 C 86.205 47.650,86.753 47.802,86.788 47.767 C 86.865 47.690,84.842 46.995,84.593 47.012 C 84.496 47.019,84.936 47.206,85.571 47.428 M106.173 47.201 C 106.169 47.266,106.354 47.595,106.583 47.933 C 106.813 48.270,107.000 48.442,106.999 48.315 C 106.998 48.081,106.184 46.983,106.173 47.201 M15.072 47.745 C 14.923 47.971,14.828 48.226,14.859 48.312 C 14.891 48.398,15.046 48.213,15.205 47.901 C 15.540 47.240,15.462 47.149,15.072 47.745 M87.167 47.972 C 87.304 48.057,87.604 48.176,87.833 48.238 C 88.123 48.315,88.174 48.302,88.000 48.195 C 87.862 48.110,87.563 47.990,87.333 47.929 C 87.044 47.851,86.993 47.865,87.167 47.972 M90.483 49.333 C 91.253 49.703,91.911 49.978,91.945 49.944 C 92.008 49.881,89.801 48.853,89.333 48.727 C 89.196 48.690,89.713 48.962,90.483 49.333 M106.915 82.250 C 106.915 100.675,106.935 108.237,106.958 99.055 C 106.982 89.873,106.982 74.798,106.958 65.555 C 106.935 56.312,106.915 63.825,106.915 82.250 M46.958 50.094 C 46.340 50.411,45.833 50.709,45.833 50.754 C 45.833 50.829,48.150 49.719,48.319 49.564 C 48.547 49.354,47.932 49.594,46.958 50.094 M69.750 50.833 C 69.505 50.939,69.638 50.977,70.250 50.977 C 70.862 50.977,70.995 50.939,70.750 50.833 C 70.567 50.755,70.342 50.690,70.250 50.690 C 70.158 50.690,69.933 50.755,69.750 50.833 M93.500 50.738 C 93.500 50.772,93.969 51.042,94.542 51.338 C 95.115 51.634,95.921 52.066,96.333 52.299 C 96.746 52.531,97.008 52.642,96.917 52.544 C 96.603 52.209,93.500 50.570,93.500 50.738 M66.333 50.999 C 66.333 51.196,67.644 51.172,67.767 50.972 C 67.814 50.896,67.511 50.833,67.093 50.833 C 66.675 50.833,66.333 50.908,66.333 50.999 M72.733 50.972 C 72.780 51.049,73.126 51.124,73.502 51.138 C 73.919 51.155,74.145 51.100,74.083 50.999 C 74.026 50.908,73.680 50.833,73.314 50.833 C 72.947 50.833,72.686 50.896,72.733 50.972 M44.792 51.262 C 44.169 51.600,44.207 51.741,44.833 51.417 C 45.108 51.274,45.333 51.123,45.333 51.079 C 45.333 50.972,45.315 50.978,44.792 51.262 M64.917 51.167 C 64.860 51.258,64.964 51.333,65.147 51.333 C 65.330 51.333,65.527 51.258,65.583 51.167 C 65.640 51.075,65.536 51.000,65.353 51.000 C 65.170 51.000,64.973 51.075,64.917 51.167 M74.833 51.167 C 75.159 51.377,75.500 51.377,75.500 51.167 C 75.500 51.075,75.294 51.001,75.042 51.003 C 74.685 51.005,74.639 51.041,74.833 51.167 M63.833 51.319 C 63.833 51.488,64.259 51.463,64.440 51.283 C 64.503 51.219,64.393 51.167,64.194 51.167 C 63.996 51.167,63.833 51.235,63.833 51.319 M76.058 51.356 C 76.278 51.484,76.418 51.482,76.549 51.351 C 76.684 51.216,76.600 51.168,76.242 51.172 C 75.811 51.176,75.788 51.199,76.058 51.356 M77.917 51.667 C 77.973 51.758,78.128 51.833,78.260 51.833 C 78.392 51.833,78.500 51.758,78.500 51.667 C 78.500 51.575,78.346 51.500,78.157 51.500 C 77.968 51.500,77.860 51.575,77.917 51.667 M60.917 51.786 C 60.733 51.830,60.511 51.935,60.422 52.019 C 60.214 52.217,61.357 52.011,61.575 51.811 C 61.744 51.657,61.491 51.647,60.917 51.786 M79.583 52.000 C 79.767 52.079,80.067 52.141,80.250 52.138 C 80.518 52.134,80.502 52.107,80.167 52.000 C 79.597 51.817,79.159 51.817,79.583 52.000 M42.708 52.519 C 42.140 52.883,41.956 53.127,42.458 52.851 C 42.841 52.641,43.440 52.178,43.333 52.175 C 43.288 52.173,43.006 52.328,42.708 52.519 M41.542 53.203 C 41.335 53.303,41.167 53.450,41.167 53.529 C 41.167 53.609,41.354 53.551,41.583 53.401 C 42.195 53.001,42.173 52.899,41.542 53.203 M55.583 53.423 C 55.167 53.623,55.153 53.646,55.500 53.562 C 55.972 53.446,56.503 53.176,56.250 53.179 C 56.158 53.181,55.858 53.290,55.583 53.423 M54.250 53.923 C 53.833 54.123,53.819 54.146,54.167 54.062 C 54.639 53.946,55.170 53.676,54.917 53.679 C 54.825 53.681,54.525 53.790,54.250 53.923 M39.625 54.449 C 39.281 54.685,39.000 54.948,39.000 55.033 C 39.000 55.118,39.337 54.945,39.750 54.649 C 40.162 54.353,40.500 54.085,40.500 54.055 C 40.500 53.919,40.202 54.053,39.625 54.449 M86.167 54.250 C 86.396 54.381,86.658 54.488,86.750 54.488 C 86.842 54.488,86.729 54.381,86.500 54.250 C 86.271 54.119,86.008 54.012,85.917 54.012 C 85.825 54.012,85.938 54.119,86.167 54.250 M52.441 54.663 C 50.385 55.540,46.514 57.716,44.361 59.206 C 43.200 60.009,41.895 60.910,41.461 61.208 C 41.028 61.506,40.671 61.808,40.670 61.878 C 40.668 61.948,41.498 61.398,42.515 60.656 C 45.367 58.573,49.679 56.048,52.333 54.908 C 53.274 54.503,53.897 54.157,53.658 54.171 C 53.617 54.174,53.069 54.395,52.441 54.663 M87.000 54.577 C 87.000 54.622,87.300 54.813,87.667 55.000 C 88.033 55.187,88.333 55.303,88.333 55.257 C 88.333 55.211,88.033 55.020,87.667 54.833 C 87.300 54.646,87.000 54.531,87.000 54.577 M96.872 55.000 C 96.872 55.321,96.906 55.452,96.948 55.292 C 96.990 55.131,96.990 54.869,96.948 54.708 C 96.906 54.548,96.872 54.679,96.872 55.000 M14.911 62.917 C 14.911 67.408,14.932 69.222,14.958 66.947 C 14.984 64.672,14.984 60.997,14.958 58.780 C 14.932 56.564,14.910 58.425,14.911 62.917 M37.663 55.921 C 37.341 56.309,37.571 56.382,37.916 56.001 C 38.082 55.817,38.141 55.667,38.046 55.667 C 37.952 55.667,37.779 55.781,37.663 55.921 M36.830 56.587 C 36.508 56.975,36.738 57.049,37.082 56.668 C 37.249 56.484,37.308 56.333,37.213 56.333 C 37.118 56.333,36.946 56.448,36.830 56.587 M35.076 58.091 C 34.438 58.690,34.067 59.103,34.250 59.008 C 34.725 58.761,36.618 57.001,36.409 57.000 C 36.313 57.000,35.713 57.491,35.076 58.091 M88.539 58.000 C 88.539 58.321,88.573 58.452,88.615 58.292 C 88.657 58.131,88.657 57.869,88.615 57.708 C 88.573 57.548,88.539 57.679,88.539 58.000 M32.453 60.463 C 31.929 60.993,31.500 61.496,31.500 61.582 C 31.500 61.773,33.129 60.198,33.352 59.792 C 33.602 59.336,33.475 59.431,32.453 60.463 M87.929 60.929 C 87.867 61.173,87.849 61.405,87.889 61.444 C 87.928 61.483,88.010 61.316,88.071 61.071 C 88.133 60.827,88.151 60.595,88.111 60.556 C 88.072 60.517,87.990 60.684,87.929 60.929 M66.652 61.399 C 66.759 61.527,66.992 61.594,67.171 61.547 C 67.613 61.432,67.415 61.167,66.886 61.167 C 66.540 61.167,66.496 61.210,66.652 61.399 M87.519 62.185 C 87.416 62.480,87.361 62.750,87.397 62.786 C 87.432 62.821,87.545 62.609,87.648 62.315 C 87.751 62.020,87.806 61.750,87.770 61.714 C 87.734 61.679,87.621 61.891,87.519 62.185 M30.494 62.673 C 30.108 63.135,29.826 63.548,29.868 63.590 C 29.932 63.654,30.351 63.173,31.215 62.042 C 31.662 61.456,31.103 61.946,30.494 62.673 M63.583 62.000 C 63.373 62.090,63.342 62.143,63.500 62.143 C 63.637 62.143,63.900 62.079,64.083 62.000 C 64.293 61.910,64.324 61.857,64.167 61.857 C 64.029 61.857,63.767 61.921,63.583 62.000 M64.500 62.583 C 64.271 62.714,64.158 62.822,64.250 62.822 C 64.342 62.822,64.604 62.714,64.833 62.583 C 65.063 62.452,65.175 62.345,65.083 62.345 C 64.992 62.345,64.729 62.452,64.500 62.583 M86.834 63.876 C 86.619 64.357,86.161 65.219,85.815 65.792 C 85.470 66.365,85.239 66.832,85.302 66.831 C 85.447 66.829,86.716 64.630,87.071 63.766 C 87.473 62.786,87.282 62.875,86.834 63.876 M38.240 63.875 L 37.750 64.417 38.292 63.927 C 38.797 63.471,38.910 63.333,38.781 63.333 C 38.752 63.333,38.509 63.577,38.240 63.875 M58.250 63.756 C 57.833 63.957,57.819 63.980,58.167 63.895 C 58.639 63.779,59.170 63.509,58.917 63.513 C 58.825 63.514,58.525 63.623,58.250 63.756 M60.458 64.510 C 59.565 64.965,58.833 65.374,58.833 65.420 C 58.833 65.494,62.150 63.887,62.319 63.731 C 62.569 63.501,61.860 63.797,60.458 64.510 M29.000 64.500 C 28.710 64.867,28.523 65.167,28.584 65.167 C 28.714 65.167,29.261 64.551,29.509 64.125 C 29.802 63.620,29.549 63.807,29.000 64.500 M36.991 64.958 L 36.417 65.583 37.042 65.009 C 37.623 64.474,37.743 64.333,37.616 64.333 C 37.588 64.333,37.307 64.615,36.991 64.958 M27.028 67.292 C 25.642 69.361,24.571 71.167,24.730 71.167 C 24.782 71.167,24.950 70.923,25.102 70.625 C 25.255 70.327,26.025 69.108,26.814 67.917 C 27.603 66.725,28.309 65.656,28.382 65.542 C 28.456 65.427,28.477 65.333,28.428 65.333 C 28.380 65.333,27.750 66.215,27.028 67.292 M35.245 66.542 L 34.250 67.583 35.292 66.589 C 36.259 65.664,36.410 65.500,36.286 65.500 C 36.261 65.500,35.792 65.969,35.245 66.542 M93.201 67.422 C 92.909 68.015,92.705 68.500,92.749 68.500 C 92.861 68.500,93.869 66.480,93.794 66.405 C 93.760 66.372,93.494 66.829,93.201 67.422 M55.030 67.435 C 54.451 67.764,54.010 68.065,54.050 68.105 C 54.124 68.180,56.167 67.014,56.167 66.897 C 56.167 66.794,56.133 66.810,55.030 67.435 M84.752 67.453 L 84.460 67.917 84.846 67.546 C 85.058 67.343,85.190 67.134,85.138 67.083 C 85.087 67.032,84.913 67.198,84.752 67.453 M49.458 67.678 C 49.115 67.859,48.833 68.045,48.833 68.091 C 48.833 68.136,49.133 68.020,49.500 67.833 C 49.867 67.646,50.167 67.457,50.167 67.413 C 50.167 67.304,50.165 67.305,49.458 67.678 M33.818 68.125 C 33.104 68.921,32.779 69.333,32.865 69.333 C 32.910 69.333,33.264 68.958,33.650 68.500 C 34.394 67.619,34.514 67.348,33.818 68.125 M83.832 68.708 C 83.343 69.330,83.331 69.366,83.736 69.000 C 84.156 68.620,84.599 68.000,84.450 68.000 C 84.417 68.000,84.138 68.319,83.832 68.708 M52.493 68.962 C 49.271 70.981,47.295 72.503,45.458 74.381 C 43.590 76.290,43.873 76.160,45.966 74.147 C 47.723 72.456,49.762 70.900,52.388 69.247 C 53.499 68.547,54.014 68.155,53.802 68.170 C 53.773 68.172,53.184 68.529,52.493 68.962 M92.083 69.500 C 91.941 69.775,91.862 70.000,91.908 70.000 C 91.954 70.000,92.108 69.775,92.250 69.500 C 92.392 69.225,92.471 69.000,92.425 69.000 C 92.379 69.000,92.226 69.225,92.083 69.500 M45.042 70.353 C 44.474 70.716,44.290 70.961,44.792 70.685 C 45.174 70.475,45.773 70.011,45.667 70.008 C 45.621 70.007,45.340 70.162,45.042 70.353 M43.750 71.265 L 43.250 71.694 43.792 71.336 C 44.090 71.139,44.333 70.945,44.333 70.905 C 44.333 70.781,44.263 70.824,43.750 71.265 M42.494 72.179 L 41.917 72.691 42.542 72.242 C 43.094 71.846,43.274 71.667,43.119 71.667 C 43.092 71.667,42.811 71.897,42.494 72.179 M80.161 72.621 C 79.660 73.147,79.468 73.390,79.735 73.163 C 80.297 72.684,81.167 71.811,81.167 71.725 C 81.167 71.589,81.027 71.714,80.161 72.621 M23.447 73.591 C 23.055 74.412,23.110 74.552,23.519 73.776 C 23.705 73.424,23.828 73.106,23.792 73.070 C 23.756 73.034,23.600 73.268,23.447 73.591 M29.616 74.125 C 28.902 75.316,28.633 75.833,28.728 75.833 C 28.769 75.833,29.045 75.402,29.342 74.875 C 29.639 74.348,29.992 73.748,30.127 73.542 C 30.261 73.335,30.331 73.167,30.281 73.167 C 30.231 73.167,29.932 73.598,29.616 74.125 M88.853 74.292 C 88.370 74.914,88.251 75.119,88.588 74.750 C 89.233 74.045,89.900 73.167,89.791 73.167 C 89.756 73.167,89.333 73.673,88.853 74.292 M78.333 74.189 L 77.583 74.869 78.289 74.339 C 78.903 73.878,79.298 73.489,79.135 73.505 C 79.107 73.508,78.746 73.816,78.333 74.189 M37.622 76.375 C 35.095 78.874,35.090 78.880,37.318 76.761 C 38.564 75.575,39.769 74.431,39.996 74.219 C 40.223 74.007,40.360 73.833,40.300 73.833 C 40.240 73.833,39.035 74.977,37.622 76.375 M76.917 75.265 L 76.417 75.694 76.958 75.336 C 77.256 75.139,77.500 74.945,77.500 74.905 C 77.500 74.781,77.429 74.824,76.917 75.265 M87.008 76.408 L 86.267 77.250 87.084 76.464 C 87.533 76.032,87.867 75.653,87.825 75.622 C 87.784 75.591,87.416 75.945,87.008 76.408 M22.018 77.190 C 21.825 77.763,21.672 78.311,21.679 78.407 C 21.686 78.504,21.873 78.064,22.095 77.429 C 22.316 76.795,22.469 76.247,22.434 76.212 C 22.399 76.177,22.212 76.617,22.018 77.190 M72.798 77.825 C 70.761 79.007,68.627 80.002,66.083 80.952 C 65.258 81.260,64.808 81.467,65.083 81.413 C 66.890 81.052,74.833 77.245,74.833 76.739 C 74.833 76.637,74.941 76.580,72.798 77.825 M27.357 78.498 C 27.069 79.142,26.838 79.725,26.844 79.793 C 26.850 79.861,27.114 79.361,27.429 78.682 C 27.745 78.004,27.976 77.421,27.943 77.387 C 27.909 77.353,27.646 77.853,27.357 78.498 M84.417 78.955 C 83.500 79.837,83.200 80.177,83.750 79.710 C 84.732 78.877,86.310 77.325,86.160 77.342 C 86.118 77.346,85.333 78.072,84.417 78.955 M42.520 79.265 C 42.501 79.748,43.669 80.679,44.273 80.663 C 44.352 80.661,44.042 80.454,43.585 80.204 C 42.952 79.859,42.728 79.630,42.646 79.250 L 42.539 78.750 42.520 79.265 M34.481 79.625 C 33.950 80.212,33.607 80.667,33.694 80.667 C 33.732 80.667,34.045 80.329,34.390 79.917 C 35.078 79.093,35.140 78.897,34.481 79.625 M26.519 80.519 C 26.416 80.813,26.361 81.083,26.397 81.119 C 26.432 81.155,26.545 80.943,26.648 80.648 C 26.751 80.354,26.806 80.083,26.770 80.048 C 26.734 80.012,26.621 80.224,26.519 80.519 M45.333 81.057 C 45.333 81.156,47.333 81.838,47.574 81.821 C 47.671 81.814,47.375 81.675,46.917 81.512 C 45.651 81.062,45.333 80.970,45.333 81.057 M81.167 81.687 C 80.586 82.196,80.586 82.197,81.120 81.841 C 81.415 81.645,81.701 81.413,81.755 81.326 C 81.916 81.065,81.782 81.147,81.167 81.687 M25.935 82.104 C 25.788 82.538,25.672 82.973,25.679 83.071 C 25.686 83.170,25.835 82.844,26.012 82.347 C 26.188 81.850,26.303 81.415,26.268 81.379 C 26.233 81.344,26.083 81.670,25.935 82.104 M63.750 81.667 C 63.540 81.757,63.509 81.810,63.667 81.810 C 63.804 81.810,64.067 81.745,64.250 81.667 C 64.460 81.576,64.491 81.523,64.333 81.523 C 64.196 81.523,63.933 81.588,63.750 81.667 M20.705 83.000 C 20.705 83.321,20.740 83.452,20.782 83.292 C 20.823 83.131,20.823 82.869,20.782 82.708 C 20.740 82.548,20.705 82.679,20.705 83.000 M33.500 82.583 C 33.500 82.693,36.854 84.369,36.927 84.295 C 36.960 84.262,36.202 83.846,35.243 83.369 C 34.284 82.892,33.500 82.538,33.500 82.583 M52.542 82.782 C 52.702 82.823,52.965 82.823,53.125 82.782 C 53.285 82.740,53.154 82.705,52.833 82.705 C 52.512 82.705,52.381 82.740,52.542 82.782 M57.875 82.782 C 58.035 82.823,58.298 82.823,58.458 82.782 C 58.619 82.740,58.487 82.705,58.167 82.705 C 57.846 82.705,57.715 82.740,57.875 82.782 M55.044 82.953 C 55.297 82.991,55.672 82.990,55.877 82.951 C 56.082 82.911,55.875 82.880,55.417 82.881 C 54.958 82.882,54.791 82.915,55.044 82.953 M25.271 84.354 C 25.132 85.049,25.267 85.184,25.417 84.500 C 25.480 84.212,25.497 83.941,25.455 83.899 C 25.412 83.857,25.329 84.061,25.271 84.354 M20.542 84.750 C 20.544 85.117,20.578 85.247,20.618 85.040 C 20.658 84.832,20.656 84.532,20.615 84.373 C 20.573 84.214,20.540 84.383,20.542 84.750 M37.833 84.750 C 38.063 84.881,38.325 84.988,38.417 84.988 C 38.508 84.988,38.396 84.881,38.167 84.750 C 37.938 84.619,37.675 84.512,37.583 84.512 C 37.492 84.512,37.604 84.619,37.833 84.750 M40.500 85.805 C 40.637 85.890,40.938 86.010,41.167 86.071 C 41.456 86.149,41.507 86.135,41.333 86.028 C 41.196 85.943,40.896 85.824,40.667 85.762 C 40.377 85.685,40.326 85.698,40.500 85.805 M20.545 88.833 C 20.545 89.246,20.578 89.415,20.618 89.208 C 20.657 89.002,20.657 88.665,20.618 88.458 C 20.578 88.252,20.545 88.421,20.545 88.833 M101.812 88.449 C 101.657 88.640,101.650 88.691,101.792 88.605 C 102.514 88.171,100.815 90.390,98.686 92.659 C 98.217 93.159,97.833 93.606,97.833 93.651 C 97.833 93.923,101.313 90.091,102.053 89.005 C 102.529 88.305,102.320 87.822,101.812 88.449 M52.375 88.782 C 52.535 88.823,52.798 88.823,52.958 88.782 C 53.119 88.740,52.987 88.705,52.667 88.705 C 52.346 88.705,52.215 88.740,52.375 88.782 M63.042 88.782 C 63.202 88.823,63.465 88.823,63.625 88.782 C 63.785 88.740,63.654 88.705,63.333 88.705 C 63.012 88.705,62.881 88.740,63.042 88.782 M100.708 89.183 C 100.319 89.459,100.000 89.722,100.000 89.767 C 100.000 89.812,100.337 89.617,100.750 89.333 C 101.162 89.050,101.500 88.783,101.500 88.742 C 101.500 88.627,101.468 88.645,100.708 89.183 M54.042 88.948 C 54.202 88.990,54.465 88.990,54.625 88.948 C 54.785 88.906,54.654 88.872,54.333 88.872 C 54.012 88.872,53.881 88.906,54.042 88.948 M61.375 88.948 C 61.535 88.990,61.798 88.990,61.958 88.948 C 62.119 88.906,61.987 88.872,61.667 88.872 C 61.346 88.872,61.215 88.906,61.375 88.948 M57.042 89.123 C 57.569 89.156,58.431 89.156,58.958 89.123 C 59.485 89.090,59.054 89.063,58.000 89.063 C 56.946 89.063,56.515 89.090,57.042 89.123 M24.389 90.667 C 24.389 91.354,24.419 91.635,24.455 91.292 C 24.491 90.948,24.491 90.385,24.455 90.042 C 24.419 89.698,24.389 89.979,24.389 90.667 M98.080 90.940 C 97.230 91.504,96.930 91.801,97.594 91.423 C 98.179 91.089,98.959 90.509,98.830 90.504 C 98.783 90.502,98.445 90.698,98.080 90.940 M96.208 92.094 C 95.819 92.328,95.500 92.558,95.500 92.606 C 95.500 92.696,96.624 92.058,96.908 91.807 C 97.195 91.553,96.928 91.663,96.208 92.094 M30.146 92.474 C 30.426 92.827,30.786 93.221,30.947 93.349 C 31.109 93.478,30.912 93.190,30.511 92.708 C 29.669 91.699,29.391 91.520,30.146 92.474 M24.389 93.167 C 24.389 93.854,24.419 94.135,24.455 93.792 C 24.491 93.448,24.491 92.885,24.455 92.542 C 24.419 92.198,24.389 92.479,24.389 93.167 M94.292 93.178 C 93.948 93.359,93.667 93.545,93.667 93.591 C 93.667 93.636,93.967 93.520,94.333 93.333 C 94.700 93.146,95.000 92.957,95.000 92.913 C 95.000 92.804,94.999 92.805,94.292 93.178 M31.917 94.500 C 32.368 94.958,32.775 95.333,32.821 95.333 C 32.867 95.333,32.535 94.958,32.083 94.500 C 31.632 94.042,31.225 93.667,31.179 93.667 C 31.133 93.667,31.465 94.042,31.917 94.500 M96.000 95.290 C 95.313 95.973,94.975 96.381,95.250 96.196 C 95.845 95.795,97.642 93.990,97.411 94.024 C 97.322 94.037,96.688 94.607,96.000 95.290 M90.833 95.000 C 89.962 95.449,89.308 95.820,89.378 95.825 C 89.555 95.837,92.500 94.349,92.500 94.248 C 92.500 94.135,92.586 94.096,90.833 95.000 M21.679 94.929 C 21.662 95.180,22.190 96.698,22.268 96.621 C 22.303 96.585,22.188 96.150,22.012 95.653 C 21.835 95.156,21.686 94.830,21.679 94.929 M33.319 95.723 C 33.562 96.026,34.500 96.740,34.500 96.623 C 34.500 96.586,34.181 96.302,33.792 95.993 C 33.402 95.683,33.189 95.562,33.319 95.723 M88.167 96.250 C 87.754 96.471,87.492 96.652,87.583 96.652 C 87.675 96.652,88.087 96.471,88.500 96.250 C 88.912 96.029,89.175 95.848,89.083 95.848 C 88.992 95.848,88.579 96.029,88.167 96.250 M29.667 96.412 C 29.667 97.391,33.154 103.667,33.699 103.667 C 33.785 103.667,33.598 103.348,33.283 102.958 C 32.244 101.673,31.008 99.462,30.255 97.542 C 29.836 96.475,29.667 96.149,29.667 96.412 M94.166 96.917 C 93.951 97.146,93.852 97.333,93.945 97.333 C 94.158 97.333,94.749 96.694,94.639 96.583 C 94.594 96.538,94.381 96.689,94.166 96.917 M22.340 96.917 C 22.326 97.603,25.419 103.091,26.200 103.765 C 26.454 103.984,26.410 103.876,26.060 103.417 C 25.124 102.189,24.285 100.766,23.310 98.750 C 22.778 97.650,22.342 96.825,22.340 96.917 M35.206 97.204 C 35.701 97.625,36.667 98.228,36.667 98.116 C 36.667 98.078,36.235 97.770,35.708 97.432 C 35.181 97.094,34.955 96.991,35.206 97.204 M92.417 98.352 C 91.867 98.806,91.389 99.259,91.355 99.358 C 91.290 99.546,93.430 97.915,93.592 97.652 C 93.805 97.308,93.359 97.574,92.417 98.352 M36.833 98.226 C 36.833 98.338,39.013 99.543,39.085 99.471 C 39.118 99.438,38.624 99.127,37.989 98.779 C 37.353 98.432,36.833 98.183,36.833 98.226 M82.917 98.423 C 82.500 98.623,82.486 98.646,82.833 98.562 C 83.306 98.446,83.836 98.176,83.583 98.179 C 83.492 98.181,83.192 98.290,82.917 98.423 M15.077 106.833 C 15.077 111.462,15.099 113.356,15.125 111.042 C 15.151 108.727,15.151 104.940,15.125 102.625 C 15.099 100.310,15.077 102.204,15.077 106.833 M40.083 99.950 C 40.732 100.301,44.411 101.594,45.167 101.737 C 45.487 101.797,44.638 101.467,43.278 101.004 C 41.918 100.540,40.591 100.050,40.328 99.914 C 39.678 99.578,39.456 99.611,40.083 99.950 M77.583 100.167 C 77.373 100.257,77.342 100.310,77.500 100.310 C 77.637 100.310,77.900 100.245,78.083 100.167 C 78.293 100.076,78.324 100.023,78.167 100.023 C 78.029 100.023,77.767 100.088,77.583 100.167 M88.546 101.219 C 87.609 101.867,86.876 102.432,86.918 102.474 C 86.989 102.545,87.604 102.151,89.500 100.820 C 90.403 100.186,90.407 100.183,90.319 100.104 C 90.281 100.069,89.483 100.571,88.546 101.219 M75.833 100.678 C 75.242 100.879,75.121 100.954,75.494 100.890 C 76.171 100.774,77.365 100.355,77.000 100.361 C 76.862 100.364,76.337 100.506,75.833 100.678 M73.417 101.333 C 73.207 101.424,73.176 101.477,73.333 101.477 C 73.471 101.477,73.733 101.412,73.917 101.333 C 74.127 101.243,74.158 101.190,74.000 101.190 C 73.862 101.190,73.600 101.255,73.417 101.333 M46.167 102.000 C 46.396 102.073,46.733 102.133,46.917 102.133 C 47.181 102.133,47.163 102.106,46.833 102.000 C 46.604 101.927,46.267 101.867,46.083 101.867 C 45.819 101.867,45.837 101.894,46.167 102.000 M67.208 102.615 C 67.369 102.657,67.631 102.657,67.792 102.615 C 67.952 102.573,67.821 102.539,67.500 102.539 C 67.179 102.539,67.048 102.573,67.208 102.615 M86.262 102.762 C 86.085 102.891,85.973 103.029,86.012 103.068 C 86.052 103.107,86.228 103.034,86.405 102.905 C 86.581 102.776,86.694 102.638,86.654 102.599 C 86.615 102.559,86.438 102.633,86.262 102.762 M65.875 102.782 C 66.035 102.823,66.298 102.823,66.458 102.782 C 66.619 102.740,66.487 102.705,66.167 102.705 C 65.846 102.705,65.715 102.740,65.875 102.782 M51.794 102.951 C 52.001 102.991,52.301 102.990,52.460 102.948 C 52.620 102.906,52.450 102.874,52.083 102.875 C 51.717 102.877,51.586 102.911,51.794 102.951 M64.125 102.951 C 64.331 102.991,64.669 102.991,64.875 102.951 C 65.081 102.911,64.912 102.879,64.500 102.879 C 64.087 102.879,63.919 102.911,64.125 102.951 M53.627 103.118 C 53.834 103.158,54.134 103.156,54.294 103.115 C 54.453 103.073,54.283 103.040,53.917 103.042 C 53.550 103.044,53.420 103.078,53.627 103.118 M61.958 103.118 C 62.165 103.157,62.502 103.157,62.708 103.118 C 62.915 103.078,62.746 103.045,62.333 103.045 C 61.921 103.045,61.752 103.078,61.958 103.118 M56.958 103.290 C 57.531 103.323,58.469 103.323,59.042 103.290 C 59.615 103.258,59.146 103.231,58.000 103.231 C 56.854 103.231,56.385 103.258,56.958 103.290 M84.904 103.580 C 84.728 103.713,84.658 103.824,84.750 103.825 C 84.998 103.830,85.421 103.532,85.316 103.427 C 85.266 103.378,85.081 103.446,84.904 103.580 M35.083 105.141 C 35.817 105.902,36.642 106.681,36.917 106.872 C 37.192 107.064,37.342 107.150,37.250 107.063 C 37.158 106.976,36.333 106.197,35.417 105.331 L 33.750 103.757 35.083 105.141 M83.958 104.095 C 83.706 104.232,83.500 104.379,83.500 104.422 C 83.500 104.583,83.763 104.482,84.167 104.167 C 84.662 103.779,84.588 103.754,83.958 104.095 M82.125 105.094 C 81.690 105.321,81.333 105.544,81.333 105.589 C 81.333 105.635,81.708 105.482,82.167 105.250 C 82.625 105.018,83.000 104.791,83.000 104.747 C 83.000 104.637,83.015 104.631,82.125 105.094 M27.449 105.107 C 27.316 105.240,27.466 105.500,27.677 105.500 C 27.763 105.500,27.833 105.388,27.833 105.250 C 27.833 104.992,27.637 104.919,27.449 105.107 M78.500 106.917 C 78.271 107.048,78.158 107.155,78.250 107.155 C 78.342 107.155,78.604 107.048,78.833 106.917 C 79.063 106.786,79.175 106.678,79.083 106.678 C 78.992 106.678,78.729 106.786,78.500 106.917 M77.000 107.583 C 76.771 107.714,76.658 107.822,76.750 107.822 C 76.842 107.822,77.104 107.714,77.333 107.583 C 77.563 107.452,77.675 107.345,77.583 107.345 C 77.492 107.345,77.229 107.452,77.000 107.583 M74.750 108.512 C 74.383 108.688,74.271 108.786,74.500 108.729 C 74.972 108.611,75.838 108.177,75.583 108.186 C 75.492 108.189,75.117 108.336,74.750 108.512 M39.500 108.652 C 39.729 108.839,39.992 108.993,40.083 108.994 C 40.262 108.995,39.960 108.764,39.417 108.483 C 39.195 108.369,39.223 108.425,39.500 108.652 M42.333 110.083 C 42.563 110.214,42.825 110.322,42.917 110.322 C 43.008 110.322,42.896 110.214,42.667 110.083 C 42.438 109.952,42.175 109.845,42.083 109.845 C 41.992 109.845,42.104 109.952,42.333 110.083 M59.708 112.282 C 59.869 112.323,60.131 112.323,60.292 112.282 C 60.452 112.240,60.321 112.205,60.000 112.205 C 59.679 112.205,59.548 112.240,59.708 112.282 M54.050 112.458 C 54.949 112.488,56.374 112.488,57.217 112.457 C 58.060 112.427,57.325 112.403,55.583 112.403 C 53.842 112.403,53.152 112.428,54.050 112.458 M15.042 116.250 C 15.044 116.617,15.078 116.747,15.118 116.540 C 15.158 116.332,15.156 116.032,15.115 115.873 C 15.073 115.714,15.040 115.883,15.042 116.250 M106.500 116.633 C 106.500 116.737,106.257 117.099,105.959 117.438 C 105.591 117.857,105.532 117.983,105.773 117.832 C 106.180 117.578,106.748 116.693,106.600 116.544 C 106.545 116.489,106.500 116.529,106.500 116.633 M15.261 117.333 C 15.557 118.488,14.682 118.407,27.963 118.500 C 34.537 118.546,40.142 118.535,40.417 118.475 C 40.692 118.416,35.362 118.360,28.574 118.350 C 15.250 118.332,15.957 118.382,15.428 117.417 C 15.189 116.979,15.168 116.969,15.261 117.333 M81.417 118.475 C 81.692 118.535,87.017 118.545,93.250 118.497 L 104.583 118.411 92.750 118.389 C 86.242 118.377,81.142 118.416,81.417 118.475 M42.018 118.892 C 43.028 119.308,43.733 119.760,44.234 120.315 C 44.409 120.509,44.630 120.667,44.725 120.667 C 44.820 120.667,44.603 120.394,44.241 120.060 C 43.580 119.450,41.799 118.497,41.333 118.504 C 41.196 118.506,41.504 118.681,42.018 118.892 M77.657 120.109 C 77.201 120.535,76.869 120.925,76.919 120.974 C 76.969 121.024,77.387 120.675,77.849 120.199 C 78.891 119.123,78.771 119.067,77.657 120.109 M0.039 120.167 C 0.039 120.487,0.073 120.619,0.115 120.458 C 0.157 120.298,0.157 120.035,0.115 119.875 C 0.073 119.715,0.039 119.846,0.039 120.167 M45.616 122.081 C 45.768 122.401,45.923 122.633,45.959 122.597 C 46.035 122.520,45.529 121.500,45.415 121.500 C 45.373 121.500,45.463 121.762,45.616 122.081 M0.572 122.914 C 0.682 123.233,0.835 123.551,0.912 123.622 C 0.990 123.692,1.003 123.612,0.943 123.443 C 0.882 123.274,0.787 122.955,0.731 122.735 C 0.676 122.514,0.572 122.333,0.502 122.333 C 0.431 122.333,0.462 122.594,0.572 122.914 M120.802 123.290 C 120.648 123.814,120.546 124.268,120.577 124.299 C 120.666 124.389,121.200 122.682,121.139 122.501 C 121.108 122.411,120.957 122.766,120.802 123.290 M1.428 125.000 C 1.740 125.642,2.073 126.167,2.167 126.167 C 2.261 126.167,2.163 125.885,1.950 125.542 C 1.737 125.198,1.465 124.673,1.345 124.375 C 1.224 124.077,1.066 123.833,0.993 123.833 C 0.920 123.833,1.116 124.358,1.428 125.000 M46.283 124.223 C 46.236 124.346,46.264 124.553,46.346 124.682 C 46.454 124.853,46.496 124.792,46.497 124.458 C 46.500 123.961,46.418 123.871,46.283 124.223 M120.263 124.793 C 120.207 124.968,119.900 125.555,119.581 126.097 C 119.261 126.640,119.157 126.897,119.350 126.668 C 119.778 126.163,120.553 124.664,120.443 124.554 C 120.399 124.511,120.318 124.618,120.263 124.793 M75.383 125.500 C 75.383 126.004,75.415 126.210,75.453 125.958 C 75.491 125.706,75.491 125.294,75.453 125.042 C 75.415 124.790,75.383 124.996,75.383 125.500 M2.460 126.708 C 3.038 127.456,5.332 129.650,6.057 130.149 C 6.894 130.724,9.328 131.997,9.583 131.993 C 9.675 131.991,9.072 131.636,8.244 131.203 C 6.110 130.089,3.246 127.747,2.645 126.625 C 2.559 126.465,2.417 126.333,2.329 126.333 C 2.242 126.333,2.300 126.502,2.460 126.708 M46.283 126.557 C 46.236 126.680,46.264 126.886,46.346 127.015 C 46.454 127.186,46.496 127.125,46.497 126.792 C 46.500 126.294,46.418 126.204,46.283 126.557 M118.167 128.000 C 117.783 128.458,117.506 128.833,117.552 128.833 C 117.598 128.833,117.950 128.458,118.333 128.000 C 118.717 127.542,118.994 127.167,118.948 127.167 C 118.902 127.167,118.550 127.542,118.167 128.000 M116.654 129.458 L 116.250 129.917 116.750 129.500 C 117.025 129.271,117.281 129.065,117.319 129.042 C 117.358 129.019,117.314 129.000,117.223 129.000 C 117.133 129.000,116.876 129.206,116.654 129.458 M45.167 129.750 C 45.167 129.887,45.110 130.000,45.040 130.000 C 44.970 130.000,44.810 130.169,44.683 130.375 L 44.453 130.750 44.825 130.419 C 45.296 129.999,45.576 129.500,45.339 129.500 C 45.244 129.500,45.167 129.612,45.167 129.750 M77.253 130.650 C 77.612 131.086,79.444 132.333,79.724 132.333 C 79.819 132.333,79.451 132.066,78.907 131.739 C 78.362 131.412,77.693 130.943,77.419 130.697 C 76.986 130.308,76.964 130.302,77.253 130.650 M43.589 131.353 C 42.716 132.009,42.650 132.093,43.250 131.788 C 43.526 131.648,43.893 131.376,44.068 131.184 C 44.489 130.719,44.383 130.756,43.589 131.353 M10.000 132.139 C 10.137 132.224,10.438 132.343,10.667 132.404 C 10.956 132.482,11.007 132.469,10.833 132.361 C 10.696 132.276,10.396 132.157,10.167 132.096 C 9.877 132.018,9.826 132.031,10.000 132.139 " stroke="none" fill="#7cc983" fill-rule="evenodd"></path><path id="path2" d="M32.583 17.431 L 32.083 17.861 32.625 17.502 C 32.923 17.305,33.167 17.112,33.167 17.072 C 33.167 16.947,33.096 16.991,32.583 17.431 M87.014 34.054 C 87.052 34.084,87.346 34.277,87.667 34.484 L 88.250 34.861 87.750 34.431 C 87.475 34.195,87.181 34.001,87.097 34.001 C 87.013 34.000,86.976 34.024,87.014 34.054 M52.917 66.089 C 52.642 66.215,52.534 66.322,52.676 66.326 C 52.819 66.330,53.082 66.223,53.260 66.089 C 53.655 65.790,53.570 65.790,52.917 66.089 M92.949 67.585 C 92.797 67.905,92.706 68.167,92.748 68.167 C 92.862 68.167,93.368 67.146,93.292 67.070 C 93.256 67.034,93.102 67.266,92.949 67.585 M48.714 68.260 C 47.961 68.674,47.295 69.093,47.235 69.191 C 47.175 69.288,47.304 69.253,47.521 69.113 C 47.739 68.973,48.479 68.554,49.167 68.182 C 49.854 67.809,50.342 67.505,50.250 67.505 C 50.158 67.506,49.467 67.845,48.714 68.260 M33.573 68.208 L 33.083 68.750 33.625 68.260 C 33.923 67.991,34.167 67.748,34.167 67.719 C 34.167 67.590,34.029 67.703,33.573 68.208 M91.813 69.708 C 91.704 69.915,91.506 70.271,91.373 70.500 C 91.141 70.900,91.143 70.903,91.412 70.583 C 91.744 70.188,92.210 69.333,92.093 69.333 C 92.049 69.333,91.922 69.502,91.813 69.708 M32.167 70.000 C 31.971 70.275,31.848 70.500,31.894 70.500 C 31.940 70.500,32.138 70.275,32.333 70.000 C 32.529 69.725,32.652 69.500,32.606 69.500 C 32.560 69.500,32.362 69.725,32.167 70.000 M45.042 70.519 C 44.474 70.883,44.290 71.127,44.792 70.851 C 45.174 70.641,45.773 70.178,45.667 70.175 C 45.621 70.173,45.340 70.328,45.042 70.519 M31.333 71.167 C 31.138 71.442,31.015 71.667,31.061 71.667 C 31.106 71.667,31.304 71.442,31.500 71.167 C 31.696 70.892,31.819 70.667,31.773 70.667 C 31.727 70.667,31.529 70.892,31.333 71.167 M42.681 72.166 C 41.940 72.716,41.333 73.203,41.333 73.249 C 41.333 73.294,41.952 72.874,42.708 72.315 C 44.246 71.178,44.260 71.167,44.126 71.167 C 44.072 71.167,43.422 71.616,42.681 72.166 M89.573 73.112 C 89.316 73.448,89.191 73.671,89.295 73.607 C 89.509 73.475,90.230 72.500,90.114 72.500 C 90.073 72.500,89.830 72.775,89.573 73.112 M88.322 74.708 C 87.921 75.190,87.725 75.478,87.886 75.349 C 88.210 75.091,89.237 73.833,89.123 73.833 C 89.084 73.833,88.724 74.227,88.322 74.708 M39.740 74.542 L 39.250 75.083 39.792 74.594 C 40.090 74.325,40.333 74.081,40.333 74.052 C 40.333 73.923,40.196 74.037,39.740 74.542 M36.747 77.375 L 35.083 79.083 36.792 77.420 C 38.378 75.875,38.576 75.667,38.455 75.667 C 38.431 75.667,37.662 76.435,36.747 77.375 M86.909 76.375 L 86.250 77.083 86.958 76.425 C 87.617 75.812,87.743 75.667,87.617 75.667 C 87.590 75.667,87.271 75.985,86.909 76.375 M42.865 77.591 C 42.363 78.625,42.419 78.770,42.936 77.775 C 43.167 77.331,43.328 76.939,43.293 76.904 C 43.258 76.869,43.065 77.179,42.865 77.591 M84.745 78.542 L 83.750 79.583 84.792 78.589 C 85.365 78.041,85.833 77.573,85.833 77.547 C 85.833 77.424,85.669 77.574,84.745 78.542 M79.201 82.905 C 78.426 83.452,78.317 83.609,78.971 83.234 C 79.276 83.060,79.604 82.823,79.700 82.708 C 79.946 82.414,79.831 82.459,79.201 82.905 M77.708 83.853 C 77.140 84.216,76.956 84.461,77.458 84.185 C 77.841 83.975,78.440 83.511,78.333 83.508 C 78.287 83.507,78.006 83.662,77.708 83.853 M75.500 85.167 C 75.179 85.342,74.977 85.489,75.050 85.493 C 75.227 85.502,76.167 85.013,76.167 84.912 C 76.167 84.803,76.157 84.807,75.500 85.167 M20.705 88.667 C 20.705 88.987,20.740 89.119,20.782 88.958 C 20.823 88.798,20.823 88.535,20.782 88.375 C 20.740 88.215,20.705 88.346,20.705 88.667 M31.826 94.542 C 32.235 94.977,32.591 95.333,32.618 95.333 C 32.743 95.333,32.611 95.184,31.875 94.493 L 31.083 93.750 31.826 94.542 M22.054 118.625 C 25.154 118.650,30.179 118.650,33.220 118.625 C 36.262 118.599,33.725 118.579,27.583 118.579 C 21.442 118.579,18.953 118.600,22.054 118.625 M79.708 118.931 C 78.961 119.258,79.025 119.384,79.792 119.095 C 80.135 118.966,80.529 118.823,80.667 118.777 C 80.833 118.721,80.806 118.693,80.583 118.693 C 80.400 118.694,80.006 118.800,79.708 118.931 M42.310 119.170 C 42.709 119.352,43.084 119.497,43.143 119.493 C 43.354 119.479,42.078 118.847,41.833 118.844 C 41.696 118.842,41.910 118.989,42.310 119.170 M44.158 120.377 C 44.701 120.966,45.088 121.258,44.689 120.776 C 44.586 120.653,44.540 120.503,44.585 120.443 C 44.630 120.383,44.616 120.372,44.554 120.418 C 44.492 120.465,44.248 120.334,44.012 120.128 C 43.776 119.922,43.842 120.034,44.158 120.377 M46.225 125.568 C 46.238 125.972,46.305 126.268,46.374 126.225 C 46.552 126.115,46.531 124.833,46.351 124.833 C 46.270 124.833,46.213 125.164,46.225 125.568 M76.041 128.458 C 76.295 129.039,76.832 129.953,76.833 129.805 C 76.834 129.643,75.995 128.000,75.911 128.000 C 75.872 128.000,75.931 128.206,76.041 128.458 " stroke="none" fill="#5cbd64" fill-rule="evenodd"></path><path id="path3" d="M40.622 11.756 C 40.280 11.988,40.000 12.215,40.000 12.258 C 40.000 12.302,40.300 12.140,40.667 11.897 C 41.249 11.512,41.446 11.333,41.289 11.333 C 41.264 11.333,40.964 11.524,40.622 11.756 M82.500 13.061 C 82.500 13.106,82.725 13.304,83.000 13.500 C 83.275 13.696,83.500 13.819,83.500 13.773 C 83.500 13.727,83.275 13.529,83.000 13.333 C 82.725 13.138,82.500 13.015,82.500 13.061 M14.712 50.000 C 14.712 50.413,14.745 50.581,14.784 50.375 C 14.824 50.169,14.824 49.831,14.784 49.625 C 14.745 49.419,14.712 49.587,14.712 50.000 M68.777 50.844 C 68.898 50.965,69.135 50.969,69.519 50.859 L 70.083 50.697 69.342 50.682 C 68.818 50.671,68.652 50.719,68.777 50.844 M70.981 50.855 C 71.291 50.947,71.606 50.960,71.681 50.886 C 71.755 50.811,71.501 50.736,71.116 50.720 L 70.417 50.690 70.981 50.855 M88.714 56.250 C 88.716 56.708,88.748 56.876,88.786 56.623 C 88.825 56.369,88.824 55.994,88.784 55.789 C 88.744 55.584,88.713 55.792,88.714 56.250 M14.909 77.000 C 14.909 80.346,14.931 81.715,14.958 80.042 C 14.985 78.369,14.985 75.631,14.958 73.958 C 14.931 72.285,14.909 73.654,14.909 77.000 M57.542 88.953 C 57.794 88.991,58.206 88.991,58.458 88.953 C 58.710 88.915,58.504 88.883,58.000 88.883 C 57.496 88.883,57.290 88.915,57.542 88.953 M87.792 118.625 C 90.840 118.650,95.827 118.650,98.875 118.625 C 101.923 118.599,99.429 118.579,93.333 118.579 C 87.237 118.579,84.744 118.599,87.792 118.625 " stroke="none" fill="#64c474" fill-rule="evenodd"></path><path id="path4" d="M82.000 12.894 C 82.000 12.940,82.225 13.138,82.500 13.333 C 82.775 13.529,83.000 13.652,83.000 13.606 C 83.000 13.560,82.775 13.362,82.500 13.167 C 82.225 12.971,82.000 12.848,82.000 12.894 M85.833 15.561 C 85.833 15.606,86.058 15.804,86.333 16.000 C 86.608 16.196,86.833 16.319,86.833 16.273 C 86.833 16.227,86.608 16.029,86.333 15.833 C 86.058 15.638,85.833 15.515,85.833 15.561 M60.125 16.284 C 60.331 16.324,60.669 16.324,60.875 16.284 C 61.081 16.245,60.913 16.212,60.500 16.212 C 60.087 16.212,59.919 16.245,60.125 16.284 M61.667 16.429 C 61.667 16.542,62.532 16.856,62.615 16.774 C 62.653 16.736,62.455 16.625,62.175 16.528 C 61.895 16.430,61.667 16.386,61.667 16.429 M87.000 16.394 C 87.000 16.440,87.225 16.638,87.500 16.833 C 87.775 17.029,88.000 17.152,88.000 17.106 C 88.000 17.060,87.775 16.862,87.500 16.667 C 87.225 16.471,87.000 16.348,87.000 16.394 M57.750 17.355 C 56.764 18.093,56.634 18.294,57.533 17.689 C 57.964 17.399,58.362 17.088,58.418 16.998 C 58.565 16.761,58.493 16.799,57.750 17.355 M63.500 17.394 C 63.500 17.440,63.725 17.638,64.000 17.833 C 64.275 18.029,64.500 18.152,64.500 18.106 C 64.500 18.060,64.275 17.862,64.000 17.667 C 63.725 17.471,63.500 17.348,63.500 17.394 M88.667 17.571 C 88.667 17.617,89.117 17.960,89.667 18.333 C 90.217 18.707,90.667 18.975,90.667 18.929 C 90.667 18.883,90.217 18.540,89.667 18.167 C 89.117 17.793,88.667 17.525,88.667 17.571 M31.583 18.265 L 31.083 18.694 31.625 18.336 C 31.923 18.139,32.167 17.945,32.167 17.905 C 32.167 17.781,32.096 17.824,31.583 18.265 M55.786 18.737 C 54.803 19.418,54.569 19.656,55.294 19.238 C 55.854 18.916,56.815 18.176,56.667 18.182 C 56.621 18.184,56.225 18.433,55.786 18.737 M65.167 18.561 C 65.167 18.606,65.392 18.804,65.667 19.000 C 65.942 19.196,66.167 19.319,66.167 19.273 C 66.167 19.227,65.942 19.029,65.667 18.833 C 65.392 18.638,65.167 18.515,65.167 18.561 M29.603 19.582 C 29.155 19.891,28.705 20.235,28.603 20.346 C 28.500 20.456,28.885 20.234,29.458 19.851 C 30.031 19.468,30.500 19.120,30.500 19.077 C 30.500 18.963,30.484 18.972,29.603 19.582 M90.833 19.056 C 90.833 19.127,92.408 20.260,95.208 22.204 C 95.460 22.379,95.667 22.486,95.667 22.442 C 95.667 22.397,95.048 21.930,94.292 21.403 C 93.535 20.877,92.448 20.114,91.875 19.708 C 91.302 19.303,90.833 19.009,90.833 19.056 M66.500 19.532 C 66.867 19.895,69.561 21.733,69.441 21.539 C 69.384 21.448,68.643 20.903,67.794 20.329 C 66.945 19.755,66.362 19.396,66.500 19.532 M53.417 20.393 C 52.867 20.788,49.829 22.930,46.667 25.154 C 43.504 27.379,40.842 29.277,40.750 29.374 C 40.459 29.680,40.948 29.354,43.648 27.447 C 45.079 26.436,48.153 24.272,50.480 22.638 C 52.806 21.004,54.643 19.669,54.563 19.672 C 54.482 19.674,53.967 19.999,53.417 20.393 M27.750 20.931 L 27.250 21.361 27.792 21.002 C 28.090 20.805,28.333 20.612,28.333 20.572 C 28.333 20.447,28.263 20.491,27.750 20.931 M26.269 21.915 C 25.822 22.225,25.372 22.569,25.269 22.679 C 25.167 22.790,25.552 22.567,26.125 22.184 C 26.698 21.801,27.167 21.453,27.167 21.410 C 27.167 21.296,27.151 21.305,26.269 21.915 M69.667 21.719 C 69.667 21.763,71.523 23.097,73.792 24.683 C 76.060 26.269,78.273 27.821,78.708 28.132 C 79.144 28.443,79.500 28.659,79.500 28.612 C 79.500 28.564,77.906 27.407,75.958 26.039 C 70.358 22.109,69.667 21.634,69.667 21.719 M95.833 22.554 C 95.833 22.605,99.077 24.914,103.042 27.683 C 111.180 33.367,111.344 33.480,111.000 33.134 C 110.862 32.996,107.487 30.610,103.500 27.833 C 99.513 25.055,96.156 22.710,96.042 22.621 C 95.927 22.532,95.833 22.502,95.833 22.554 M23.708 23.683 C 23.319 23.959,23.000 24.222,23.000 24.267 C 23.000 24.312,23.337 24.117,23.750 23.833 C 24.162 23.550,24.500 23.283,24.500 23.242 C 24.500 23.127,24.468 23.145,23.708 23.683 M21.333 25.350 C 20.554 25.901,19.842 26.435,19.750 26.537 C 19.547 26.764,22.317 24.883,22.661 24.562 C 23.125 24.127,22.744 24.353,21.333 25.350 M18.015 27.667 C 17.244 28.210,16.531 28.744,16.431 28.854 C 16.223 29.084,18.959 27.229,19.327 26.891 C 19.806 26.452,19.397 26.693,18.015 27.667 M79.667 28.738 C 79.667 28.783,80.117 29.127,80.667 29.500 C 81.217 29.873,81.667 30.142,81.667 30.096 C 81.667 30.050,81.217 29.707,80.667 29.333 C 80.117 28.960,79.667 28.692,79.667 28.738 M15.375 29.517 C 14.985 29.792,14.667 30.055,14.667 30.100 C 14.667 30.146,15.004 29.950,15.417 29.667 C 15.829 29.383,16.167 29.117,16.167 29.075 C 16.167 28.961,16.135 28.978,15.375 29.517 M39.524 30.157 C 39.033 30.512,38.545 30.897,38.440 31.014 C 38.231 31.245,39.935 30.079,40.327 29.722 C 40.774 29.316,40.427 29.503,39.524 30.157 M12.500 31.516 C 11.721 32.066,10.971 32.633,10.833 32.775 C 10.696 32.918,11.352 32.496,12.292 31.838 C 13.734 30.828,14.190 30.464,13.958 30.508 C 13.935 30.512,13.279 30.966,12.500 31.516 M82.333 30.561 C 82.333 30.606,82.558 30.804,82.833 31.000 C 83.108 31.196,83.333 31.319,83.333 31.273 C 83.333 31.227,83.108 31.029,82.833 30.833 C 82.558 30.638,82.333 30.515,82.333 30.561 M37.375 31.683 C 36.985 31.959,36.667 32.222,36.667 32.267 C 36.667 32.312,37.004 32.117,37.417 31.833 C 37.829 31.550,38.167 31.283,38.167 31.242 C 38.167 31.127,38.135 31.145,37.375 31.683 M83.500 31.394 C 83.500 31.440,83.725 31.638,84.000 31.833 C 84.275 32.029,84.500 32.152,84.500 32.106 C 84.500 32.060,84.275 31.862,84.000 31.667 C 83.725 31.471,83.500 31.348,83.500 31.394 M35.708 32.850 C 35.319 33.126,35.000 33.389,35.000 33.434 C 35.000 33.479,35.337 33.284,35.750 33.000 C 36.162 32.716,36.500 32.450,36.500 32.409 C 36.500 32.294,36.468 32.312,35.708 32.850 M85.167 32.567 C 85.167 32.613,85.504 32.883,85.917 33.167 C 86.329 33.450,86.667 33.645,86.667 33.599 C 86.667 33.554,86.329 33.284,85.917 33.000 C 85.504 32.716,85.167 32.521,85.167 32.567 M9.789 33.423 C 9.447 33.655,9.167 33.881,9.167 33.925 C 9.167 33.969,9.467 33.806,9.833 33.564 C 10.416 33.178,10.612 33.000,10.455 33.000 C 10.431 33.000,10.131 33.190,9.789 33.423 M111.333 33.398 C 111.333 33.440,111.826 33.819,112.428 34.239 C 113.030 34.660,113.475 34.928,113.418 34.835 C 113.295 34.637,111.333 33.284,111.333 33.398 M34.042 34.017 C 33.652 34.292,33.333 34.555,33.333 34.600 C 33.333 34.646,33.671 34.450,34.083 34.167 C 34.496 33.883,34.833 33.617,34.833 33.575 C 34.833 33.461,34.802 33.478,34.042 34.017 M8.417 34.431 L 7.917 34.861 8.458 34.502 C 8.756 34.305,9.000 34.112,9.000 34.072 C 9.000 33.947,8.929 33.991,8.417 34.431 M87.833 34.394 C 87.833 34.440,88.058 34.638,88.333 34.833 C 88.608 35.029,88.833 35.152,88.833 35.106 C 88.833 35.060,88.608 34.862,88.333 34.667 C 88.058 34.471,87.833 34.348,87.833 34.394 M6.660 35.679 L 6.083 36.191 6.708 35.742 C 7.261 35.346,7.440 35.167,7.285 35.167 C 7.259 35.167,6.978 35.397,6.660 35.679 M114.167 35.404 C 114.167 35.450,114.617 35.793,115.167 36.167 C 115.717 36.540,116.167 36.808,116.167 36.762 C 116.167 36.717,115.717 36.373,115.167 36.000 C 114.617 35.627,114.167 35.358,114.167 35.404 M30.917 36.265 L 30.417 36.694 30.958 36.336 C 31.256 36.139,31.500 35.945,31.500 35.905 C 31.500 35.781,31.429 35.824,30.917 36.265 M90.667 36.394 C 90.667 36.440,90.892 36.638,91.167 36.833 C 91.442 37.029,91.667 37.152,91.667 37.106 C 91.667 37.060,91.442 36.862,91.167 36.667 C 90.892 36.471,90.667 36.348,90.667 36.394 M29.542 37.183 C 29.152 37.459,28.833 37.722,28.833 37.767 C 28.833 37.812,29.171 37.617,29.583 37.333 C 29.996 37.050,30.333 36.783,30.333 36.742 C 30.333 36.627,30.302 36.645,29.542 37.183 M117.333 37.561 C 117.333 37.606,117.558 37.804,117.833 38.000 C 118.108 38.196,118.333 38.319,118.333 38.273 C 118.333 38.227,118.108 38.029,117.833 37.833 C 117.558 37.638,117.333 37.515,117.333 37.561 M2.073 39.042 L 1.583 39.583 2.125 39.094 C 2.630 38.638,2.743 38.500,2.615 38.500 C 2.586 38.500,2.342 38.744,2.073 39.042 M88.830 56.284 C 88.786 56.760,88.811 57.089,88.886 57.015 C 88.960 56.940,88.996 56.550,88.966 56.148 L 88.911 55.417 88.830 56.284 M88.709 58.250 C 88.711 58.617,88.745 58.747,88.785 58.540 C 88.824 58.332,88.823 58.032,88.781 57.873 C 88.739 57.714,88.707 57.883,88.709 58.250 M14.730 59.833 C 14.730 60.887,14.757 61.319,14.790 60.792 C 14.823 60.265,14.823 59.402,14.790 58.875 C 14.757 58.348,14.730 58.779,14.730 59.833 M34.577 58.875 L 33.750 59.750 34.625 58.923 C 35.438 58.154,35.576 58.000,35.452 58.000 C 35.426 58.000,35.032 58.394,34.577 58.875 M88.440 59.535 C 88.384 59.745,88.344 60.067,88.352 60.250 C 88.360 60.433,88.435 60.291,88.519 59.933 C 88.682 59.241,88.612 58.892,88.440 59.535 M32.609 60.654 C 32.091 61.197,31.667 61.697,31.667 61.765 C 31.667 61.833,31.689 61.858,31.717 61.819 C 31.744 61.781,32.206 61.281,32.742 60.708 C 33.279 60.135,33.680 59.667,33.634 59.667 C 33.588 59.667,33.127 60.111,32.609 60.654 M88.104 60.923 C 88.047 61.072,88.006 61.319,88.014 61.472 C 88.022 61.625,88.095 61.529,88.175 61.258 C 88.333 60.732,88.277 60.472,88.104 60.923 M87.583 62.621 C 87.144 63.790,86.226 65.589,85.390 66.917 C 84.986 67.558,84.839 67.866,85.063 67.600 C 85.918 66.582,88.182 62.126,87.957 61.902 C 87.916 61.860,87.747 62.184,87.583 62.621 M30.294 63.267 C 29.375 64.382,26.833 67.824,26.833 67.952 C 26.833 68.129,27.065 67.846,27.850 66.708 C 28.340 65.998,29.359 64.648,30.114 63.708 C 30.869 62.769,31.454 62.000,31.412 62.000 C 31.371 62.000,30.868 62.570,30.294 63.267 M14.738 67.250 C 14.738 69.358,14.762 70.198,14.791 69.116 C 14.820 68.033,14.820 66.308,14.791 65.282 C 14.762 64.256,14.738 65.142,14.738 67.250 M53.167 68.341 C 52.754 68.608,52.474 68.828,52.545 68.830 C 52.710 68.834,54.000 68.022,54.000 67.915 C 54.000 67.801,54.001 67.800,53.167 68.341 M26.042 69.208 C 24.758 71.252,22.267 76.304,22.819 75.745 C 22.907 75.656,23.246 74.959,23.572 74.197 C 24.204 72.716,25.222 70.774,26.077 69.417 C 26.833 68.217,26.861 68.167,26.775 68.167 C 26.732 68.167,26.402 68.635,26.042 69.208 M83.450 69.542 C 82.612 70.558,82.539 70.677,83.172 70.000 C 83.979 69.136,84.754 68.166,84.636 68.167 C 84.607 68.167,84.073 68.786,83.450 69.542 M51.455 69.423 C 51.113 69.655,50.833 69.881,50.833 69.925 C 50.833 69.969,51.133 69.806,51.500 69.564 C 52.082 69.178,52.279 69.000,52.122 69.000 C 52.097 69.000,51.797 69.190,51.455 69.423 M49.083 71.098 L 48.583 71.528 49.125 71.169 C 49.423 70.972,49.667 70.778,49.667 70.739 C 49.667 70.614,49.596 70.657,49.083 71.098 M80.979 72.173 C 80.303 72.819,79.000 73.918,78.083 74.617 C 76.353 75.936,75.892 76.320,76.333 76.078 C 77.374 75.507,82.665 71.017,82.312 71.004 C 82.254 71.002,81.654 71.528,80.979 72.173 M45.917 73.619 C 45.367 74.135,45.142 74.401,45.417 74.210 C 45.896 73.877,47.145 72.659,46.991 72.674 C 46.950 72.678,46.467 73.104,45.917 73.619 M29.250 74.333 C 29.108 74.608,29.029 74.833,29.075 74.833 C 29.121 74.833,29.274 74.608,29.417 74.333 C 29.559 74.058,29.638 73.833,29.592 73.833 C 29.546 73.833,29.392 74.058,29.250 74.333 M44.406 75.208 L 43.917 75.750 44.458 75.260 C 44.963 74.804,45.077 74.667,44.948 74.667 C 44.919 74.667,44.675 74.910,44.406 75.208 M28.189 76.292 C 26.871 78.918,25.420 82.737,25.103 84.417 C 24.964 85.153,25.204 84.532,25.747 82.750 C 26.306 80.914,27.418 78.153,28.326 76.348 C 28.699 75.607,28.966 75.000,28.920 75.000 C 28.875 75.000,28.545 75.581,28.189 76.292 M22.491 76.441 C 22.399 76.683,22.276 76.957,22.219 77.050 C 22.162 77.142,22.194 77.169,22.291 77.109 C 22.475 76.996,22.875 76.000,22.737 76.000 C 22.694 76.000,22.583 76.198,22.491 76.441 M74.804 76.887 C 73.578 77.654,73.023 78.124,74.083 77.497 C 75.401 76.718,76.000 76.328,76.000 76.248 C 76.000 76.135,76.039 76.114,74.804 76.887 M14.726 78.250 C 14.725 79.075,14.754 79.434,14.788 79.047 C 14.823 78.660,14.824 77.985,14.789 77.547 C 14.755 77.109,14.726 77.425,14.726 78.250 M72.333 78.347 C 71.829 78.626,70.742 79.164,69.917 79.541 C 68.411 80.230,67.648 80.683,68.583 80.334 C 69.370 80.041,73.177 78.119,73.269 77.968 C 73.393 77.769,73.335 77.792,72.333 78.347 M82.906 80.042 L 82.417 80.583 82.958 80.094 C 83.463 79.638,83.577 79.500,83.448 79.500 C 83.419 79.500,83.175 79.744,82.906 80.042 M14.693 81.365 C 14.679 82.254,14.723 83.015,14.792 83.058 C 14.860 83.101,14.896 82.599,14.871 81.943 C 14.793 79.912,14.721 79.678,14.693 81.365 M42.347 79.898 C 42.506 80.047,44.801 81.166,44.936 81.161 C 45.099 81.156,42.559 79.833,42.386 79.833 C 42.326 79.833,42.309 79.863,42.347 79.898 M65.707 81.209 C 64.583 81.581,63.693 81.915,63.729 81.951 C 63.809 82.031,68.000 80.680,68.000 80.575 C 68.000 80.457,67.871 80.493,65.707 81.209 M45.333 81.311 C 45.739 81.552,46.441 81.728,46.250 81.540 C 46.158 81.450,45.858 81.328,45.583 81.269 C 45.257 81.199,45.170 81.214,45.333 81.311 M80.827 81.679 L 80.250 82.191 80.875 81.742 C 81.427 81.346,81.607 81.167,81.452 81.167 C 81.426 81.167,81.144 81.397,80.827 81.679 M47.500 82.012 C 48.096 82.188,48.658 82.325,48.750 82.317 C 49.003 82.295,46.953 81.670,46.667 81.682 C 46.529 81.687,46.904 81.836,47.500 82.012 M33.000 81.982 C 33.000 82.193,33.657 82.565,33.792 82.430 C 33.845 82.377,33.807 82.333,33.706 82.333 C 33.606 82.333,33.406 82.215,33.262 82.071 C 33.118 81.927,33.000 81.887,33.000 81.982 M50.667 82.696 C 50.667 82.771,50.892 82.833,51.167 82.833 C 51.442 82.833,51.667 82.804,51.667 82.769 C 51.667 82.733,51.442 82.671,51.167 82.631 C 50.892 82.591,50.667 82.620,50.667 82.696 M58.333 82.833 L 57.750 82.956 58.282 82.978 C 58.574 82.990,58.860 82.925,58.917 82.833 C 58.973 82.742,58.996 82.677,58.968 82.689 C 58.940 82.701,58.654 82.766,58.333 82.833 M59.542 82.782 C 59.702 82.823,59.965 82.823,60.125 82.782 C 60.285 82.740,60.154 82.705,59.833 82.705 C 59.512 82.705,59.381 82.740,59.542 82.782 M52.294 82.951 C 52.501 82.991,52.801 82.990,52.960 82.948 C 53.120 82.906,52.950 82.874,52.583 82.875 C 52.217 82.877,52.086 82.911,52.294 82.951 M53.814 83.048 C 53.887 83.120,54.689 83.157,55.598 83.130 L 57.250 83.081 55.466 82.999 C 54.485 82.954,53.741 82.976,53.814 83.048 M35.181 83.217 C 35.656 83.562,36.167 83.811,36.167 83.697 C 36.167 83.618,35.976 83.466,35.742 83.360 C 35.353 83.183,35.015 83.097,35.181 83.217 M24.777 85.616 C 24.640 86.460,24.752 86.494,24.960 85.673 C 25.054 85.303,25.074 85.000,25.004 85.000 C 24.934 85.000,24.832 85.277,24.777 85.616 M20.653 85.875 C 20.604 86.233,20.629 86.437,20.713 86.353 C 20.794 86.273,20.833 85.992,20.800 85.729 C 20.745 85.288,20.733 85.300,20.653 85.875 M24.564 86.740 C 24.513 86.872,24.501 87.116,24.537 87.282 C 24.578 87.470,24.635 87.380,24.689 87.042 C 24.780 86.474,24.721 86.332,24.564 86.740 M329.240 87.208 L 328.750 87.750 329.292 87.260 C 329.797 86.804,329.910 86.667,329.781 86.667 C 329.752 86.667,329.509 86.910,329.240 87.208 M20.705 87.667 C 20.705 87.987,20.740 88.119,20.782 87.958 C 20.823 87.798,20.823 87.535,20.782 87.375 C 20.740 87.215,20.705 87.346,20.705 87.667 M24.397 87.907 C 24.347 88.039,24.335 88.283,24.370 88.449 C 24.411 88.637,24.468 88.547,24.522 88.208 C 24.613 87.641,24.554 87.498,24.397 87.907 M263.244 88.875 L 262.417 89.750 263.292 88.923 C 263.773 88.468,264.167 88.074,264.167 88.048 C 264.167 87.924,264.012 88.062,263.244 88.875 M101.310 88.989 C 100.976 89.263,100.964 89.305,101.227 89.268 C 101.398 89.244,101.608 89.099,101.694 88.946 C 101.898 88.581,101.793 88.593,101.310 88.989 M24.189 90.125 C 24.213 91.291,24.283 91.161,24.369 89.792 C 24.397 89.356,24.362 89.000,24.293 89.000 C 24.223 89.000,24.177 89.506,24.189 90.125 M28.443 90.279 C 28.278 90.444,28.311 90.700,28.484 90.593 C 28.567 90.542,28.833 90.837,29.075 91.250 C 29.316 91.662,29.555 92.000,29.604 92.000 C 29.653 92.000,29.524 91.719,29.317 91.375 C 28.680 90.319,28.557 90.165,28.443 90.279 M99.834 91.083 C 99.619 91.311,99.475 91.527,99.513 91.561 C 99.552 91.595,99.758 91.408,99.971 91.145 C 100.448 90.556,100.364 90.518,99.834 91.083 M97.708 91.353 C 97.140 91.716,96.956 91.961,97.458 91.685 C 97.841 91.475,98.440 91.011,98.333 91.008 C 98.287 91.007,98.006 91.162,97.708 91.353 M28.706 92.506 C 28.800 92.876,28.902 93.153,28.933 93.122 C 29.039 93.017,28.790 91.833,28.663 91.833 C 28.593 91.833,28.612 92.136,28.706 92.506 M24.189 93.615 C 24.177 94.183,24.223 94.682,24.292 94.724 C 24.360 94.767,24.395 94.452,24.368 94.026 C 24.285 92.703,24.213 92.538,24.189 93.615 M29.100 94.112 C 29.229 94.540,29.384 94.933,29.444 94.987 C 29.504 95.040,29.508 94.957,29.453 94.804 C 29.398 94.650,29.303 94.256,29.241 93.929 C 29.180 93.601,29.070 93.333,28.998 93.333 C 28.925 93.333,28.971 93.684,29.100 94.112 M331.409 94.708 L 330.750 95.417 331.458 94.758 C 332.117 94.145,332.243 94.000,332.117 94.000 C 332.090 94.000,331.771 94.319,331.409 94.708 M21.930 95.333 C 22.054 95.798,22.133 95.923,22.236 95.819 C 22.275 95.781,22.197 95.562,22.063 95.333 L 21.819 94.917 21.930 95.333 M29.508 95.282 C 29.440 96.917,32.543 102.313,35.012 104.852 L 36.534 106.417 35.087 104.840 C 32.798 102.344,31.226 99.759,30.065 96.583 C 29.763 95.758,29.513 95.173,29.508 95.282 M24.862 98.167 C 24.870 98.600,25.133 99.311,25.138 98.917 C 25.141 98.733,25.079 98.433,25.000 98.250 C 24.912 98.046,24.859 98.014,24.862 98.167 M23.616 99.415 C 23.768 99.734,23.923 99.966,23.959 99.930 C 24.035 99.854,23.529 98.833,23.415 98.833 C 23.373 98.833,23.463 99.095,23.616 99.415 M25.167 99.489 C 25.167 99.694,26.042 102.037,26.499 103.056 C 27.057 104.296,26.788 104.162,25.750 102.681 C 24.640 101.097,24.338 100.863,25.355 102.375 C 26.233 103.681,26.939 104.506,27.068 104.377 C 27.122 104.322,27.167 104.403,27.167 104.556 C 27.167 104.708,27.238 104.833,27.326 104.833 C 27.413 104.833,27.192 104.196,26.834 103.418 C 26.476 102.639,25.984 101.401,25.740 100.668 C 25.331 99.435,25.167 99.096,25.167 99.489 M24.273 100.583 C 24.658 101.241,24.667 101.251,24.667 101.046 C 24.667 100.949,24.512 100.693,24.323 100.477 L 23.980 100.083 24.273 100.583 M175.417 103.256 C 175.000 103.457,174.986 103.480,175.333 103.395 C 175.806 103.279,176.336 103.009,176.083 103.013 C 175.992 103.014,175.692 103.123,175.417 103.256 M14.881 113.750 C 14.882 114.208,14.915 114.376,14.953 114.123 C 14.991 113.869,14.990 113.494,14.951 113.289 C 14.911 113.084,14.880 113.292,14.881 113.750 M77.650 120.458 C 77.091 121.056,76.409 121.931,76.774 121.583 C 77.171 121.204,78.370 119.833,78.305 119.833 C 78.266 119.833,77.971 120.115,77.650 120.458 M135.583 124.500 C 135.941 124.867,136.272 125.167,136.318 125.167 C 136.363 125.167,136.108 124.867,135.750 124.500 C 135.392 124.133,135.062 123.833,135.016 123.833 C 134.970 123.833,135.225 124.133,135.583 124.500 M3.917 127.979 C 5.595 129.752,8.075 131.318,10.667 132.242 C 11.354 132.487,11.842 132.617,11.750 132.530 C 11.658 132.444,11.283 132.280,10.917 132.166 C 8.746 131.488,6.186 129.960,4.279 128.202 C 3.266 127.267,3.211 127.233,3.917 127.979 M117.417 128.464 C 116.200 129.632,114.495 130.735,113.098 131.259 C 112.648 131.428,112.361 131.592,112.459 131.625 C 113.092 131.836,116.770 129.492,118.063 128.053 C 118.981 127.032,118.766 127.168,117.417 128.464 M77.134 130.113 C 77.731 130.963,78.972 131.847,80.249 132.333 C 81.045 132.636,80.661 132.362,79.579 131.856 C 78.908 131.542,78.160 131.009,77.626 130.465 C 77.096 129.925,76.905 129.789,77.134 130.113 M43.966 130.741 C 43.415 131.261,42.645 131.786,42.133 131.991 C 41.647 132.186,41.475 132.300,41.750 132.244 C 42.491 132.095,43.488 131.458,44.326 130.597 C 45.334 129.562,45.132 129.643,43.966 130.741 M111.417 131.923 C 111.000 132.123,110.986 132.146,111.333 132.062 C 111.806 131.946,112.336 131.676,112.083 131.679 C 111.992 131.681,111.692 131.790,111.417 131.923 " stroke="none" fill="#48b450" fill-rule="evenodd"></path></g></svg>